<svg viewBox="0 0 24 25" fill="none" xmlns="http://www.w3.org/2000/svg">
<path d="M20 12.4829C20 14.6046 19.1571 16.6395 17.6569 18.1398C16.1566 19.6401 14.1217 20.4829 12 20.4829C9.87827 20.4829 7.84344 19.6401 6.34315 18.1398C4.84285 16.6395 4 14.6046 4 12.4829C4 10.3612 4.84285 8.32635 6.34315 6.82606C7.84344 5.32577 9.87827 4.48291 12 4.48291C12.76 4.48291 13.5 4.59291 14.2 4.79291L15.77 3.22291C14.61 2.74291 13.34 2.48291 12 2.48291C10.6868 2.48291 9.38642 2.74157 8.17317 3.24411C6.95991 3.74666 5.85752 4.48326 4.92893 5.41184C3.05357 7.28721 2 9.83075 2 12.4829C2 15.1351 3.05357 17.6786 4.92893 19.554C5.85752 20.4826 6.95991 21.2192 8.17317 21.7217C9.38642 22.2243 10.6868 22.4829 12 22.4829C14.6522 22.4829 17.1957 21.4293 19.0711 19.554C20.9464 17.6786 22 15.1351 22 12.4829M7.91 10.5629L6.5 11.9829L11 16.4829L21 6.48291L19.59 5.06291L11 13.6529L7.91 10.5629Z" fill="#CF0F2A"/>
</svg>
