<svg viewBox="0 0 49 51" fill="none" xmlns="http://www.w3.org/2000/svg">
<path d="M48.7705 37.7915L36.4788 50.0832L27.8747 41.479L31.5622 37.7915L36.4788 42.7082L45.083 34.104L48.7705 37.7915ZM5.74967 0.916504C3.02092 0.916504 0.833008 3.129 0.833008 5.83317V45.1665C0.833008 47.8953 3.02092 50.0832 5.74967 50.0832H24.9493C24.0643 48.559 23.4497 46.8873 23.1547 45.1665H5.74967V5.83317H22.958V18.1248H35.2497V28.1548C36.0609 28.0319 36.8968 27.9582 37.708 27.9582C38.5438 27.9582 39.3551 28.0319 40.1663 28.1548V15.6665L25.4163 0.916504M10.6663 25.4998V30.4165H30.333V25.4998M10.6663 35.3332V40.2498H22.958V35.3332H10.6663Z" fill="#CF0F2A"/>
</svg>
