<svg width="77" height="78" viewBox="0 0 77 78" fill="none" xmlns="http://www.w3.org/2000/svg">
<g clip-path="url(#clip0_450_929)">
<path d="M0 36.2866C0.19651 34.8509 0.358932 33.4112 0.593542 31.9834C3.12211 16.6075 15.6486 3.80225 30.9805 0.938809C32.6729 0.621986 34.3893 0.437507 36.0938 0.192871C37.6979 0.192871 39.3021 0.192871 40.9063 0.192871C42.366 0.391387 43.8359 0.535762 45.2836 0.798444C53.4188 2.27829 60.3708 5.99795 66.1498 11.9093C66.7554 12.5289 66.7935 13.2127 66.2862 13.6879C65.7668 14.1752 65.1532 14.115 64.5096 13.4553C60.9664 9.81386 56.8918 6.91433 52.1374 5.1317C38.6444 0.0725585 26.174 1.98553 15.019 11.1453C8.52414 16.4792 4.41547 23.4413 2.96169 31.7248C0.497292 45.7753 4.84057 57.4957 15.6406 66.8159C15.8111 66.9623 15.9955 67.0947 16.166 67.241C16.7876 67.7724 16.9139 68.4221 16.5009 68.9415C16.0697 69.4809 15.402 69.547 14.7804 69.0036C13.4209 67.8185 12.0232 66.6655 10.778 65.3682C4.6601 58.9856 1.13896 51.3718 0.182474 42.577C0.128333 42.0837 0.0601563 41.5924 0 41.0991C0 39.495 0 37.8908 0 36.2866Z" fill="#FF3854"/>
<path d="M76.9996 41.0993C76.8071 42.509 76.6487 43.9266 76.4161 45.3303C73.9156 60.3172 62.2372 72.7415 47.4087 76.1343C45.4637 76.5795 43.4605 76.7599 41.4833 77.0667C41.2888 77.0968 41.0983 77.1509 40.9058 77.1931H36.0933C34.6857 76.9965 33.272 76.8341 31.8704 76.5995C27.6875 75.9017 23.7453 74.4981 20.0216 72.4728C19.1934 72.0216 18.9287 71.412 19.2756 70.7844C19.6225 70.1588 20.2762 70.0445 21.1044 70.4937C26.9135 73.6418 33.1256 75.1698 39.7228 74.9031C50.0476 74.486 58.7061 70.3974 65.612 62.7154C70.4626 57.3194 73.3962 50.9729 74.3748 43.7883C75.616 34.6666 73.695 26.2267 68.6118 18.5267C68.4333 18.256 68.2368 17.9933 68.0644 17.7186C67.6593 17.0689 67.7576 16.4332 68.307 16.0663C68.8644 15.6953 69.5201 15.8036 69.9172 16.4733C71.1805 18.6009 72.53 20.6903 73.5927 22.9181C75.5177 26.9506 76.5464 31.2517 76.8732 35.7153C76.8913 35.958 76.9555 36.1986 76.9976 36.4392C76.9976 37.9932 76.9976 39.5473 76.9976 41.1013L76.9996 41.0993Z" fill="#FF3854"/>
<path d="M38.4939 7.04065C55.9412 7.03063 70.1341 21.2195 70.1521 38.6889C70.1702 56.086 55.9753 70.321 38.5781 70.3511C21.0867 70.3812 6.85172 56.1823 6.84571 38.6969C6.83969 21.2476 21.0326 7.05068 38.4939 7.04065ZM48.3074 37.3193C48.2733 37.201 48.2272 37.0105 48.165 36.826C47.367 34.4539 46.9419 32.0215 47.0782 29.513C47.2085 27.1108 47.8502 24.877 49.3942 22.97C50.6214 21.4541 52.6026 21.1673 54.0704 22.2802C55.5703 23.4212 55.7808 25.4124 54.6599 27.0326C54.2749 27.59 53.9982 28.2698 53.8458 28.9335C53.4828 30.5076 53.7255 32.0757 54.1526 33.6077C54.3732 34.3937 54.69 35.1517 54.9627 35.9217C55.2133 35.5928 55.2795 35.3261 55.3637 35.0634C56.1598 32.581 57.6396 30.678 60.0619 29.6013C61.6641 28.8894 63.5149 29.5391 64.327 31.059C65.1572 32.6151 64.6639 34.5722 63.1018 35.4404C62.0852 36.0059 61.6561 36.8381 61.4997 37.9048C61.1708 40.1627 61.4937 42.3664 62.2416 44.4859C63.2923 47.4576 63.547 50.4855 63.2262 53.5916C63.1981 53.8643 63.184 54.137 63.156 54.5099C63.3104 54.3796 63.3565 54.3555 63.3826 54.3195C63.4688 54.1971 63.551 54.0708 63.6272 53.9425C67.8181 46.8761 68.9991 39.3265 66.9558 31.3779C62.8211 15.3041 46.4225 5.93779 30.437 10.4214C15.2074 14.6945 6.0336 30.672 10.02 45.9818C14.5537 63.393 33.2623 72.6972 49.8574 65.7772C50.3647 65.5667 50.858 65.1997 51.223 64.7866C53.2723 62.4686 54.7862 59.8258 55.7327 56.8821C56.8115 53.5274 57.2185 50.1526 55.9573 46.7217C55.2575 44.8168 53.9039 43.5094 52.2777 43.3951C50.5432 43.2728 48.8007 44.3917 47.9465 46.1783C47.1765 47.7885 45.3397 48.5124 43.6994 47.8527C42.0692 47.197 41.235 45.3963 41.8145 43.7019C42.4783 41.7628 43.7255 40.2409 45.3738 39.0698C46.2841 38.4222 47.2928 37.9148 48.3094 37.3133L48.3074 37.3193ZM55.7788 62.2882C55.8269 62.3303 55.8751 62.3724 55.9212 62.4145C56.7594 61.7026 57.5835 60.9747 58.4377 60.285C59.2659 59.6172 59.7632 58.7871 60.0639 57.7584C61.3172 53.4692 61.5799 49.2202 60.0058 44.9311C59.2779 42.9479 59.0212 40.8364 59.1455 38.7169C59.2719 36.5653 59.8093 34.6063 61.9528 33.5054C62.4963 33.2267 62.5945 32.6652 62.3178 32.1338C62.011 31.5463 61.4676 31.442 60.8981 31.7027C59.3882 32.3905 58.2913 33.5295 57.778 35.0875C57.397 36.2385 57.2266 37.4657 57.0341 38.6708C56.8736 39.6734 56.1578 40.1787 55.2895 39.6674C54.686 39.3125 54.1285 38.7811 53.7235 38.2076C52.5645 36.5633 51.9469 34.6744 51.6381 32.7073C51.241 30.1868 51.235 27.7083 52.9214 25.5347C53.2883 25.0615 53.2061 24.5321 52.7429 24.123C52.3078 23.738 51.624 23.744 51.2831 24.2654C50.7157 25.1357 50.1001 26.038 49.8073 27.0165C48.7626 30.5136 49.4063 33.9044 50.7397 37.205C51.2671 38.5104 51.0786 38.9495 49.7632 39.3586C47.2366 40.1426 45.2374 41.5844 44.0965 44.0408C43.7115 44.8689 43.902 45.5106 44.5416 45.7632C45.1612 46.0079 45.6665 45.7171 46.0315 44.909C47.0682 42.609 49.9396 40.9347 52.4662 41.1693C55.4179 41.442 57.024 43.3289 58.0347 45.8815C59.302 49.0798 59.1776 52.3483 58.4277 55.6329C57.8903 57.987 56.9639 60.1907 55.7788 62.2922V62.2882Z" fill="#FF3854"/>
<path d="M25.9573 49.6975C25.9573 50.7603 25.9854 51.7328 25.9513 52.7033C25.8711 55.0033 23.9802 56.5032 21.8386 55.9918C20.3388 55.6329 19.3602 54.3636 19.3161 52.6712C19.292 51.7228 19.3121 50.7723 19.3121 49.7516C18.0167 49.7055 16.8357 49.3767 16.214 48.2197C15.8671 47.57 15.6546 46.7539 15.6746 46.0219C15.7248 44.3336 17.0462 43.2808 19.2539 43.0101V41.1112C16.5028 40.3853 15.5623 39.4489 15.6325 37.5199C15.6967 35.7533 16.8437 34.7206 19.3101 34.2714C19.3101 33.9967 19.3101 33.704 19.3101 33.4092C19.3101 29.8259 19.3081 26.2426 19.3101 22.6593C19.3121 20.1147 20.6034 18.8393 23.1621 18.8393C25.8431 18.8393 28.524 18.8333 31.205 18.8393C37.3389 18.8554 42.0351 23.2207 42.5083 29.3386C42.9535 35.1136 38.155 40.636 32.372 40.9428C30.5473 41.039 28.7145 40.9829 26.8858 40.9949C26.6151 40.9949 26.3444 40.9949 26.0155 40.9949V43.0643C27.6217 43.0643 29.2178 43.0482 30.814 43.0683C32.5866 43.0903 33.906 44.2153 34.1807 45.8956C34.4915 47.7966 33.0598 49.6053 31.1308 49.6754C29.7051 49.7276 28.2754 49.6915 26.8457 49.6955C26.577 49.6955 26.3103 49.6955 25.9513 49.6955L25.9573 49.6975ZM27.4252 21.2195C27.4252 21.1794 27.4252 21.1373 27.4252 21.0972C26.0476 21.0972 24.67 21.0972 23.2904 21.0972C21.8046 21.0972 21.5679 21.3378 21.5679 22.8578C21.5679 24.7367 21.5679 26.6155 21.5679 28.4944C21.5679 30.7242 21.574 32.954 21.5639 35.1838C21.5599 36.2666 21.203 36.6035 20.1102 36.6135C19.7091 36.6175 19.3041 36.5874 18.909 36.6356C18.2854 36.7098 17.8764 37.0547 17.8984 37.7204C17.9185 38.3801 18.3215 38.711 18.9672 38.735C19.4424 38.7531 19.9217 38.721 20.3949 38.7571C21.1569 38.8132 21.5419 39.1902 21.5559 39.9582C21.582 41.3598 21.584 42.7655 21.5539 44.1671C21.5379 44.9211 21.1188 45.2921 20.3588 45.3181C19.8836 45.3342 19.4043 45.2941 18.9311 45.3362C18.3035 45.3923 17.8924 45.7372 17.9004 46.3989C17.9084 47.0546 18.2975 47.4015 18.9451 47.4356C19.3442 47.4557 19.7472 47.4356 20.1483 47.4456C21.1689 47.4657 21.5539 47.8387 21.5659 48.8593C21.58 50.0624 21.5619 51.2656 21.572 52.4667C21.58 53.3349 21.975 53.8362 22.6247 53.8443C23.2744 53.8523 23.6935 53.345 23.7035 52.4907C23.7155 51.3137 23.7015 50.1346 23.7095 48.9576C23.7175 47.7986 24.0765 47.4477 25.2535 47.4456C27.0823 47.4416 28.911 47.4396 30.7398 47.4456C31.2631 47.4477 31.6782 47.2953 31.8888 46.7839C32.2016 46.028 31.6622 45.3342 30.7237 45.3261C28.8448 45.3101 26.966 45.3261 25.0871 45.3181C24.1045 45.3141 23.7235 44.9431 23.7115 43.9606C23.6975 42.7575 23.7035 41.5543 23.7075 40.3532C23.7115 39.0679 24.0283 38.7491 25.3077 38.743C27.4873 38.735 29.669 38.7952 31.8466 38.715C36.4045 38.5465 39.9878 34.9311 40.2685 30.3071C40.5332 25.9478 37.2467 21.8411 32.8252 21.2576C31.0546 21.025 29.2278 21.2195 27.4272 21.2195H27.4252Z" fill="#FF3854"/>
<path d="M23.7051 29.9219C23.7051 28.1674 23.6971 26.4128 23.7071 24.6602C23.7131 23.5955 24.0961 23.2085 25.1649 23.2185C27.6173 23.2446 30.0897 23.1122 32.52 23.3729C35.8627 23.7318 38.3371 26.9101 38.1286 30.1906C37.9 33.7699 35.1709 36.519 31.6999 36.5973C29.4701 36.6474 27.2403 36.6193 25.0085 36.6113C24.1061 36.6073 23.7191 36.2363 23.7111 35.336C23.6931 33.5313 23.7051 31.7266 23.7051 29.9239V29.9219ZM26.0171 25.4864V34.3574C27.8699 34.3574 29.6686 34.3775 31.4653 34.3534C33.9056 34.3213 35.7845 32.4765 35.8847 30.0502C35.981 27.7402 34.1703 25.6488 31.7881 25.5084C29.8972 25.3982 27.9922 25.4864 26.0171 25.4864Z" fill="#FF3854"/>
</g>
<defs>
<clipPath id="clip0_450_929">
<rect width="77" height="77" fill="white" transform="translate(0 0.192871)"/>
</clipPath>
</defs>
</svg>
