<svg width="71" height="72" viewBox="0 0 71 72" fill="none" xmlns="http://www.w3.org/2000/svg">
<g clip-path="url(#clip0_450_938)">
<path d="M28.7134 0.192871H29.447C30.8628 0.321836 32.1067 0.922285 33.1786 1.99422C37.0282 5.84098 40.8735 9.69189 44.7161 13.5456C45.9462 14.7798 46.4939 16.2552 46.3594 17.972C46.2637 19.1771 45.8352 20.2129 45.0711 21.0824C43.6109 22.7437 41.7472 23.3455 39.4827 22.8893C39.4286 22.8782 39.3814 22.8921 39.3426 22.9323L37.8006 24.4715C37.759 24.5145 37.7645 24.5492 37.8158 24.5769C40.2634 25.8915 40.8999 29.0311 38.9876 31.1222C38.9682 31.143 38.971 31.1763 38.9918 31.1957C46.2762 37.5511 53.562 43.9064 60.8492 50.2631C61.0142 50.4073 61.2278 50.5044 61.3665 50.6653C61.4677 50.7831 61.5786 50.8941 61.6979 50.9995C63.3911 52.4874 65.2909 54.1404 67.3973 55.9612C68.2626 56.7086 68.8908 57.3368 69.2819 57.8443C70.2942 59.1603 70.8669 60.6871 71 62.4246V63.3316C70.8863 64.9471 70.3746 66.3851 69.4635 67.6456C67.9104 69.7937 65.7845 70.9752 63.086 71.1929H62.2831C59.8633 71.0334 57.8622 70.0447 56.2828 68.2295C47.8612 58.5543 39.4397 48.8778 31.0154 39.1999C30.989 39.1708 30.9446 39.1666 30.9155 39.1929C28.8951 41.004 25.6529 40.527 24.4076 38.0309C24.3702 37.9574 24.323 37.9505 24.2662 38.0087L22.7325 39.5396C22.695 39.5771 22.6826 39.6214 22.6937 39.6728C23.0833 41.4935 22.738 43.0952 21.6578 44.4777C19.6151 47.0875 15.7198 47.2858 13.3638 44.9312C9.48516 41.0567 5.60928 37.1794 1.73479 33.2994C0.693359 32.2552 0.115098 31.0155 0 29.5802V28.9534C0.117871 27.496 0.658691 26.2965 1.61969 25.3521C3.06742 23.9307 4.83687 23.4412 6.92666 23.885C6.97104 23.8933 7.01541 23.8808 7.0473 23.8489L23.656 7.24156C23.6893 7.20828 23.7018 7.16807 23.6921 7.1223C23.2164 4.79678 23.8391 2.90529 25.5572 1.44785C26.4073 0.725371 27.4598 0.307969 28.7134 0.192871ZM42.8445 19.4088C43.9063 18.3436 43.9021 16.6199 42.8378 15.5591L30.9976 3.76014C29.9323 2.69867 28.2086 2.70145 27.1479 3.76685L27.0794 3.83561C26.0176 4.90078 26.0218 6.62447 27.0861 7.68528L38.9263 19.4843C39.9916 20.5457 41.7153 20.543 42.776 19.4776L42.8445 19.4088ZM36.8803 21.4705C36.9047 21.4471 36.9047 21.4083 36.8803 21.3842L25.1999 9.70385C25.1759 9.67941 25.1371 9.67941 25.1136 9.70385L9.51098 25.3065C9.48654 25.3299 9.48654 25.3687 9.51098 25.3928L21.1914 37.0732C21.2154 37.0976 21.2542 37.0976 21.2777 37.0732L36.8803 21.4705ZM19.3133 42.94C20.3751 41.8749 20.3709 40.1512 19.3066 39.0904L7.46633 27.2914C6.40109 26.2299 4.6774 26.2327 3.61666 27.2981L3.54814 27.3668C2.48639 28.432 2.49055 30.1557 3.55485 31.2165L15.3951 43.0155C16.4604 44.077 18.184 44.0742 19.2448 43.0088L19.3133 42.94ZM36.9304 29.2631C37.4636 28.7302 37.4636 27.8648 36.9304 27.3314L36.9029 27.3039C36.3695 26.7707 35.5042 26.7707 34.9712 27.3039L27.1111 35.1641C26.5779 35.697 26.5779 36.5623 27.1111 37.0958L27.1385 37.1232C27.672 37.6565 28.5373 37.6565 29.0702 37.1232L36.9304 29.2631ZM37.0282 33.1621C37.0074 33.1441 36.9755 33.1455 36.9561 33.1649L32.9706 37.1489C32.9512 37.1683 32.9498 37.2002 32.9679 37.221L47.8487 54.3151C47.8695 54.3387 47.9042 54.3401 47.9264 54.3179L54.1084 48.1359C54.1306 48.1137 54.1292 48.079 54.1056 48.0582L37.0282 33.1621ZM49.7569 56.4132C49.7319 56.4382 49.7305 56.4784 49.7527 56.5047L51.4916 58.5002C51.5166 58.5294 51.5624 58.5307 51.5887 58.5044L58.2921 51.8024C58.3185 51.776 58.3171 51.7303 58.2879 51.7053L56.2925 49.965C56.2661 49.9428 56.2259 49.9442 56.2009 49.9691L49.7569 56.4132ZM59.2365 67.2352C60.6606 68.3931 62.7421 68.7301 64.4588 68.1033C65.9496 67.5597 67.0326 66.5779 67.7079 65.1565C68.7272 63.014 68.1891 60.3612 66.3628 58.7582C64.4699 57.0955 62.5091 55.3829 60.4804 53.6204C60.4498 53.594 60.4207 53.594 60.3916 53.6231L53.4067 60.608C53.3817 60.633 53.3817 60.6718 53.4039 60.6982C54.9778 62.5023 56.5615 64.3245 58.1548 66.1646C58.5292 66.5973 58.8898 66.9537 59.2365 67.2352Z" fill="#FF3854"/>
<path d="M24.1952 14.5558L18.2781 20.4524C17.7459 20.9827 17.7444 21.844 18.2747 22.3762L18.3119 22.4135C18.8422 22.9457 19.7036 22.9472 20.2357 22.4169L26.1529 16.5203C26.6851 15.99 26.6866 15.1287 26.1563 14.5965L26.1191 14.5591C25.5888 14.027 24.7274 14.0255 24.1952 14.5558Z" fill="#FF3854"/>
<path d="M15.3509 26.7305C16.1137 26.7305 16.7321 26.1121 16.7321 25.3493C16.7321 24.5865 16.1137 23.9681 15.3509 23.9681C14.5881 23.9681 13.9697 24.5865 13.9697 25.3493C13.9697 26.1121 14.5881 26.7305 15.3509 26.7305Z" fill="#FF3854"/>
<path d="M37.5995 71.1929H1.20922C0.538047 71.0431 0.134512 70.6368 0 69.9754V67.9258C0.273184 65.4186 1.49766 63.541 3.6748 62.2929C3.69422 62.2819 3.69977 62.2555 3.68729 62.2375C2.25896 60.1519 2.51967 57.4824 4.40977 55.7795C4.98803 55.2567 5.64395 54.9017 6.37613 54.7131C6.8074 54.6022 7.40924 54.5467 8.18303 54.5481C15.6436 54.5551 23.3343 54.5551 31.2566 54.5495C33.5267 54.5467 35.396 56.1803 35.9132 58.2978C36.2447 59.6582 35.9951 60.9617 35.1644 62.2111C35.1367 62.2513 35.1436 62.2846 35.1866 62.3096C37.587 63.6866 38.8642 65.9733 38.8392 68.7648C38.8323 69.5455 38.8115 70.0059 38.7768 70.1445C38.6423 70.6909 38.2499 71.0404 37.5995 71.1929ZM33.2674 59.3725C33.2674 58.2437 32.3521 57.3285 31.2234 57.3285H7.60199C6.4732 57.3285 5.55797 58.2437 5.55797 59.3725V59.4391C5.55797 60.5679 6.4732 61.4831 7.60199 61.4831H31.2234C32.3521 61.4831 33.2674 60.5679 33.2674 59.4391V59.3725ZM5.66197 64.459C3.97572 65.022 2.80395 66.5488 2.77621 68.346C2.77621 68.3945 2.79979 68.4195 2.84832 68.4195H35.9784C36.0311 68.4195 36.0561 68.3931 36.0547 68.3404C35.9854 66.5155 34.869 65.0276 33.1426 64.4479C32.7474 64.3148 32.1344 64.2496 31.3066 64.251C23.3676 64.269 15.4148 64.2649 7.45084 64.2413C6.70062 64.2399 6.10434 64.312 5.66197 64.459Z" fill="#FF3854"/>
</g>
<defs>
<clipPath id="clip0_450_938">
<rect width="71" height="71" fill="white" transform="translate(0 0.192871)"/>
</clipPath>
</defs>
</svg>
