<svg width="83" height="83" viewBox="0 0 83 83" fill="none" xmlns="http://www.w3.org/2000/svg">
<g clip-path="url(#clip0_450_922)">
<path d="M41.8992 0.692931C45.5038 2.79418 49.0764 4.96804 53.2297 5.87345C56.4414 6.57387 59.6488 6.3283 62.8242 5.70048C64.0435 5.45918 64.8955 5.67699 65.833 6.5034C70.1038 10.2767 74.443 13.971 78.7565 17.6951C79.6 18.4233 79.6043 18.5984 79.0918 19.5935C77.4774 22.7368 75.7498 25.8332 74.3106 29.0555C72.0961 34.0076 71.637 39.2543 72.188 44.6185C72.4698 47.371 72.677 50.1342 72.9567 52.8868C73.6828 59.9999 71.0626 65.6651 65.6194 70.173C61.5856 73.5149 57.0778 76.0561 52.3243 78.1701C49.023 79.6393 45.6511 80.9504 42.2985 82.3043C41.9569 82.4409 41.4871 82.5264 41.1646 82.4025C35.2303 80.1219 29.3109 77.805 23.8144 74.5613C20.9401 72.8657 18.2559 70.9182 15.8386 68.597C11.54 64.4671 9.71208 59.4212 10.1669 53.521C10.4403 49.9655 10.7798 46.4143 11.0788 42.861C11.5443 37.3089 10.4296 32.0515 8.01016 27.0717C6.76734 24.5135 5.36865 22.0322 4.03401 19.5188C3.55568 18.6176 3.57917 18.4148 4.35005 17.7506C8.88568 13.8343 13.4256 9.92647 17.9505 5.99731C18.4417 5.57022 18.9072 5.46559 19.5478 5.58303C23.0969 6.23861 26.6673 6.6721 30.242 5.79444C31.3994 5.51043 32.5803 5.19652 33.6416 4.67548C36.2147 3.41559 38.726 2.02757 41.2629 0.690796C41.4764 0.690796 41.6899 0.690796 41.9014 0.690796L41.8992 0.692931ZM5.77865 18.8781C6.95099 21.1011 8.12547 23.2451 9.22307 25.4275C12.0589 31.065 13.4085 37.0078 12.8405 43.3415C12.5223 46.8948 12.1806 50.446 11.9457 54.0057C11.6276 58.8062 13.0049 63.0386 16.366 66.5748C18.8495 69.1864 21.7302 71.2684 24.818 73.0814C29.9985 76.1223 35.5613 78.3367 41.1476 80.487C41.4123 80.5895 41.7882 80.5895 42.0466 80.4806C46.2106 78.7232 50.4131 77.0469 54.5024 75.1314C58.7114 73.1604 62.6 70.6535 65.9846 67.4098C69.871 63.6856 71.605 59.1542 71.1993 53.8071C70.9793 50.888 70.6953 47.9732 70.4305 45.0562C70.1401 41.8381 70.076 38.6265 70.5928 35.4191C71.3338 30.8343 73.1788 26.666 75.3633 22.6215C76.0296 21.3873 76.715 20.1615 77.3856 18.9422C77.2959 18.8354 77.2532 18.7692 77.1934 18.718C72.9418 15.0429 68.6923 11.3657 64.4215 7.71205C64.1823 7.50704 63.7488 7.41736 63.4199 7.44725C62.5743 7.51986 61.7394 7.71205 60.8938 7.81668C57.2016 8.27366 53.518 8.24376 50.0437 6.78314C47.3552 5.6535 44.782 4.24413 42.1747 2.92658C41.7497 2.7109 41.4508 2.66819 41.0194 2.91376C39.6101 3.71668 38.1836 4.49397 36.7401 5.23283C33.3853 6.95184 29.8747 8.17543 26.0502 8.03876C24.0087 7.96616 21.9758 7.64798 19.9365 7.47929C19.5499 7.44725 19.0332 7.46434 18.7727 7.68642C14.4356 11.3828 10.1306 15.1177 5.78078 18.8739L5.77865 18.8781Z" fill="#FF3854"/>
<path d="M15.8149 52.9744C16.0199 51.1337 16.3146 48.1954 16.6776 45.2656C17.6257 37.608 16.1779 30.386 12.7933 23.5078C12.3235 22.5533 11.8388 21.6052 11.3135 20.6805C10.9632 20.0634 11.038 19.6043 11.5761 19.1452C14.286 16.824 16.9702 14.4707 19.6971 12.1709C20.0174 11.9018 20.5833 11.7096 20.9826 11.7801C26.7525 12.788 32.2064 11.7118 37.468 9.35C38.5827 8.85031 39.6739 8.29083 40.7395 7.69078C41.3502 7.34698 41.8478 7.36833 42.4457 7.70787C45.9179 9.67458 49.5865 11.1267 53.5435 11.7886C56.3515 12.2606 59.1617 12.3011 61.9634 11.7844C62.5976 11.6669 63.076 11.7929 63.565 12.22C66.1702 14.4985 68.7989 16.7514 71.4212 19.0128C72.2219 19.7046 72.2625 19.9075 71.7436 20.8492C69.4267 25.0432 67.6415 29.4315 66.7702 34.1657C66.0228 38.2144 66.0976 42.2653 66.5823 46.3333C66.8749 48.789 67.1653 51.249 67.3297 53.7176C67.6372 58.3706 65.8435 62.1695 62.414 65.2574C59.0913 68.2469 55.2304 70.3866 51.2201 72.2615C48.2839 73.6346 45.2751 74.8496 42.2813 76.0989C41.9247 76.2462 41.4186 76.2953 41.0705 76.1608C35.5889 74.0296 30.1521 71.7746 25.1958 68.5651C23.3956 67.3992 21.666 66.0688 20.1114 64.5954C16.9659 61.6143 15.7594 58.4368 15.8128 52.9766L15.8149 52.9744ZM13.1115 20.1915C13.4916 20.9304 13.8397 21.5859 14.1706 22.2522C16.8314 27.6014 18.5333 33.2026 18.7319 39.2202C18.875 43.5572 18.1041 47.8131 17.6855 52.101C17.3588 55.4451 17.7005 58.6418 19.7462 61.467C21.1236 63.3696 22.8725 64.8773 24.7943 66.1927C29.8809 69.6734 35.5205 72.0373 41.2093 74.2987C41.4848 74.4076 41.8926 74.3329 42.1873 74.2154C43.9875 73.4937 45.7876 72.7655 47.5622 71.9818C51.7775 70.1218 55.886 68.0697 59.608 65.3001C64.1757 61.9005 66.2257 57.4802 65.4463 51.7679C65.0299 48.71 64.6754 45.6371 64.4768 42.56C64.0134 35.3636 65.7751 28.6307 68.9932 22.2394C69.337 21.5582 69.6872 20.8813 70.0438 20.1872C67.6821 18.1458 65.3523 16.162 63.0631 14.1291C62.5442 13.6678 62.0488 13.5781 61.4018 13.6678C60.428 13.8045 59.4436 13.9091 58.4613 13.9283C52.6978 14.0458 47.387 12.4015 42.3667 9.69167C41.8328 9.40339 41.4186 9.35 40.8463 9.6575C34.7497 12.9439 28.3285 14.6715 21.3414 13.6443C21.083 13.6059 20.7221 13.6486 20.5363 13.8066C18.0614 15.9079 15.6099 18.0347 13.1093 20.1915H13.1115Z" fill="#FF3854"/>
<path d="M41.6598 59.2867C46.9578 59.2867 52.2537 59.2867 57.5516 59.2867C57.8185 59.2867 58.141 59.2055 58.3353 59.3251C58.6535 59.5237 59.0934 59.8525 59.1019 60.1387C59.1105 60.4334 58.7047 60.79 58.4079 61.0292C58.2563 61.1509 57.9467 61.0825 57.7075 61.0825C46.9535 61.0825 36.1996 61.0825 25.4456 61.0825C25.1808 61.0825 24.8456 61.1402 24.6705 61.0035C24.3907 60.7879 24.0384 60.4248 24.0491 60.1387C24.0597 59.8568 24.4463 59.5216 24.7452 59.3422C24.9673 59.2119 25.3154 59.2888 25.6079 59.2888C30.9593 59.2888 36.3085 59.2888 41.6598 59.2888V59.2867Z" fill="#FF3854"/>
<path d="M41.6599 64.2409C45.0168 64.2409 48.3736 64.2409 51.7284 64.2409C51.9932 64.2409 52.3199 64.1683 52.5121 64.2921C52.8068 64.4822 53.1933 64.8089 53.204 65.0908C53.2146 65.3791 52.8644 65.7399 52.5826 65.9556C52.4074 66.0901 52.0701 66.0261 51.8053 66.0261C44.9869 66.0282 38.1664 66.0282 31.348 66.0261C31.0832 66.0261 30.7458 66.088 30.5707 65.9556C30.2909 65.7399 29.9407 65.3791 29.9514 65.0908C29.9621 64.8089 30.3486 64.4843 30.6454 64.2943C30.8376 64.1704 31.1622 64.243 31.4291 64.243C34.8394 64.243 38.2475 64.243 41.6578 64.243L41.6599 64.2409Z" fill="#FF3854"/>
<path d="M31.5355 48.3303C32.0251 45.8078 32.5021 43.1324 33.079 40.4789C33.2598 39.6463 33.0915 39.1162 32.4647 38.555C30.5564 36.84 28.6668 35.1001 26.849 33.2916C26.4498 32.8925 26.1131 32.116 26.2222 31.6203C26.3126 31.2243 27.0922 30.794 27.6191 30.7129C30.2664 30.3075 32.9293 29.9832 35.5922 29.6995C36.2844 29.6247 36.5962 29.3191 36.8613 28.736C37.937 26.3693 39.0128 23.9996 40.179 21.6766C40.4378 21.1589 41.0863 20.4698 41.5135 20.4979C42.0374 20.5353 42.7046 21.1434 42.9759 21.6766C44.1515 23.9933 45.2241 26.3662 46.2967 28.736C46.5618 29.3222 46.8767 29.6122 47.5689 29.6839C50.2349 29.9677 52.8947 30.3013 55.542 30.7129C56.0658 30.794 56.8485 31.2243 56.9358 31.6203C57.0449 32.1192 56.7144 32.8987 56.3122 33.2947C54.435 35.1531 52.4426 36.8961 50.5592 38.7514C50.2225 39.0819 50.0011 39.7773 50.0821 40.2419C50.5062 42.7676 51.0893 45.2683 51.4946 47.7971C51.5975 48.4301 51.4448 49.3655 51.03 49.7366C50.712 50.0235 49.708 49.8114 49.1623 49.5308C46.8861 48.3584 44.6504 47.0987 42.4302 45.8171C41.8097 45.4585 41.342 45.4835 40.7309 45.8327C38.4047 47.161 36.0568 48.4519 33.6964 49.721C32.4273 50.4039 31.4576 49.8239 31.5324 48.3272L31.5355 48.3303ZM52.876 32.9673C50.4813 32.6742 48.4077 32.3842 46.3248 32.1815C45.3644 32.088 44.7564 31.692 44.3822 30.7971C43.8584 29.5467 43.2534 28.3275 42.6766 27.099C42.3461 26.3943 41.9968 25.6958 41.5665 24.804C40.5563 26.9587 39.6333 28.8358 38.7976 30.7534C38.3892 31.6889 37.7718 32.0942 36.7677 32.1909C34.6973 32.3873 32.6393 32.6867 30.5751 32.9455C30.4753 33.0796 30.3756 33.2105 30.2758 33.3446C30.6125 33.5317 30.9961 33.6658 31.2736 33.9183C32.5146 35.0377 33.6933 36.2257 34.9561 37.3171C35.8136 38.0561 36.1098 38.8169 35.8292 39.9706C35.3427 41.9756 35.034 44.0211 34.6131 46.2505C36.4154 45.2558 38.0773 44.4794 39.5834 43.4692C41.0146 42.5057 42.212 42.5618 43.6214 43.491C45.1337 44.4857 46.7832 45.2683 48.5418 46.2381C48.1146 43.9899 47.7872 41.9257 47.3164 39.8927C47.0731 38.8481 47.2976 38.1309 48.0928 37.4293C49.655 36.0511 51.1485 34.5918 52.8729 32.9735L52.876 32.9673Z" fill="#FF3854"/>
</g>
<defs>
<clipPath id="clip0_450_922">
<rect width="82" height="82" fill="white" transform="translate(0.5 0.692871)"/>
</clipPath>
</defs>
</svg>
