<svg width="84" height="86" viewBox="0 0 84 86" fill="none" xmlns="http://www.w3.org/2000/svg">
<path d="M27.945 84.8392C27.6765 84.1603 27.4057 83.4814 27.0857 82.668C25.1858 82.668 23.0935 82.6878 21.0011 82.6635C17.9935 82.6283 15.373 81.6121 13.2091 79.5312C9.99332 76.4385 8.9975 71.8337 10.64 67.7314C12.296 63.6005 16.2525 60.8803 20.7729 60.834C24.3802 60.7966 27.9876 60.8252 31.5949 60.8252C31.8992 60.8252 32.2036 60.8252 32.6377 60.8252C32.5661 58.6341 32.3401 56.2909 35.7886 56.6767C35.6521 54.5297 35.6744 52.5413 38.6888 52.861C38.7335 49.6625 38.8342 46.5698 38.1136 43.5014C37.6101 41.3566 37.2006 39.1765 37.6571 36.9611C37.7936 36.2932 38.0555 35.6496 38.3128 34.8273C38.2524 34.7855 38.0487 34.6819 37.8943 34.532C36.6434 33.3196 36.8493 31.3731 38.3822 30.5267C38.8879 30.2489 39.011 29.9602 39.0065 29.4422C38.9864 26.2745 38.9976 23.1069 38.9953 19.9393C38.9953 18.8018 38.3732 18.2133 37.214 18.1912C33.7589 18.1251 30.5297 18.9606 27.455 20.486C25.2418 21.5837 23.1024 22.8666 20.5826 23.2458C20.2313 23.2987 19.9202 23.6205 19.5421 23.8454C20.0187 24.7668 20.4685 25.6441 20.925 26.5192C23.1785 30.8221 25.4655 35.1073 27.6541 39.441C27.9361 39.9987 27.8197 40.8341 27.6765 41.4976C27.3453 43.0319 26.4278 44.242 25.2149 45.2384C21.2607 48.492 14.6614 48.3906 10.8101 45.0158C9.36897 43.7527 8.52308 42.181 8.40224 40.2742C8.3821 39.948 8.52979 39.5799 8.68644 39.2757C11.298 34.2586 13.9229 29.246 16.5456 24.2333C16.5971 24.1363 16.6396 24.0349 16.7112 23.8806C16.5188 23.7418 16.3196 23.6029 16.1272 23.4574C14.6681 22.3574 14.3503 20.3361 15.4066 18.8856C16.4695 17.4285 18.5261 17.034 20.0142 18.092C20.5177 18.4491 20.8758 18.4425 21.3547 18.167C23.1158 17.1552 24.8658 16.1236 26.6583 15.1669C30.0553 13.3527 33.7231 12.471 37.5676 12.2594C37.7892 12.2462 38.0085 12.2329 38.2457 12.2197C38.4247 11.748 38.3777 11.4592 37.8518 11.252C36.9119 10.8817 36.3704 10.1454 36.3838 9.14246C36.3972 8.13949 36.9746 7.46276 37.9011 7.05496C38.8096 6.65597 38.8924 6.40688 38.4493 5.58246C37.4244 3.68233 38.2211 1.38982 40.2105 0.508091C40.4342 0.4111 40.6491 0.298679 40.8684 0.192871C41.4278 0.192871 41.9873 0.192871 42.5467 0.192871C42.7146 0.276636 42.8757 0.373626 43.0502 0.446369C45.1963 1.33692 46.0556 3.6669 44.9054 5.6508C44.4981 6.35398 44.7085 6.73092 45.3619 6.99103C46.3622 7.38781 47.0156 8.07115 47.0291 9.14907C47.0425 10.1851 46.4495 10.8751 45.4962 11.3181C45.259 11.4284 45.1404 11.7899 44.9322 12.0874C46.8389 12.3542 48.5597 12.5239 50.2515 12.8457C53.3017 13.4277 56.0944 14.6731 58.744 16.2514C59.9144 16.948 61.1004 17.6225 62.3088 18.2552C62.5326 18.372 62.96 18.3367 63.1771 18.1979C64.9427 17.0714 66.9635 17.3734 68.0578 18.9672C69.1274 20.5256 68.6799 22.4875 66.9948 23.6514C66.9053 23.7131 66.8225 23.7814 66.6994 23.8762C66.8158 24.1099 66.9187 24.3281 67.0306 24.5419C69.6153 29.4818 72.2246 34.4107 74.7511 39.3793C75.0263 39.9193 74.9816 40.7261 74.8339 41.35C74.167 44.1495 72.1932 45.8402 69.584 46.8035C65.7528 48.2187 62.0515 47.8858 58.6455 45.5624C56.8933 44.3655 55.7722 42.7166 55.5753 40.5718C55.5372 40.1662 55.6133 39.6923 55.7991 39.3308C58.4128 34.2807 61.0579 29.246 63.6918 24.2091C63.741 24.1121 63.7768 24.0085 63.8843 23.755C63.3226 23.5434 62.7721 23.3339 62.2193 23.1245C60.8677 22.6131 59.478 22.1833 58.1756 21.5705C55.7811 20.4441 53.4695 19.106 50.8177 18.663C49.1998 18.394 47.546 18.3235 45.9057 18.2023C45.2455 18.1538 44.4287 18.9076 44.4243 19.5667C44.4086 22.9835 44.4131 26.4002 44.4287 29.8169C44.4287 29.9888 44.5697 30.2225 44.7174 30.3239C46.7538 31.7082 46.8993 33.3019 45.0732 34.942C46.6419 38.0523 45.7804 41.2221 45.1269 44.3633C44.5451 47.1518 44.7599 49.9513 44.6906 52.8301C45.7222 52.8698 46.8791 52.7574 47.3088 53.8088C47.6489 54.6421 47.6333 55.6164 47.7944 56.6436C48.75 56.6701 50.0031 56.551 50.4462 57.7171C50.7953 58.6363 50.7729 59.6944 50.9341 60.8296C51.1466 60.8296 51.4711 60.8296 51.7956 60.8296C58.0055 60.8296 64.2155 60.834 70.4254 60.8252C71.5868 60.8252 72.5133 61.2176 73.0593 62.2536C73.6053 63.2897 73.5471 64.3367 72.9026 65.3155C72.276 66.2677 71.3071 66.5521 70.1456 66.497V76.9014C70.4321 76.9367 70.7096 76.9631 70.9848 77.005C72.4573 77.2365 73.4196 78.3497 73.4196 79.8111C73.4196 81.2682 72.4484 82.4034 70.9848 82.6261C70.629 82.6812 70.2598 82.6702 69.8973 82.6702C58.932 82.6702 47.969 82.6702 37.0037 82.6702C36.6747 82.6702 36.3435 82.6702 36.2227 82.6702C35.887 83.488 35.6095 84.1647 35.332 84.8414H34.6607C33.6604 83.7679 32.6579 82.6922 31.6486 81.6099C30.6036 82.7253 29.61 83.7833 28.6186 84.8414H27.9473L27.945 84.8392ZM68.192 66.4948C67.8071 66.4948 67.5028 66.4948 67.2007 66.4948C51.9925 66.4948 36.7821 66.4948 21.574 66.4948C21.2674 66.4948 20.9586 66.4904 20.652 66.5102C17.7899 66.691 15.6281 69.0011 15.6662 71.8315C15.7042 74.6089 17.9286 76.8419 20.7706 76.9367C21.4688 76.9609 22.1692 76.9455 22.8674 76.9455C24.3422 76.9455 25.8169 76.9455 27.3117 76.9455V74.9153C27.0454 74.8999 26.853 74.8801 26.6583 74.8801C25.4006 74.8778 24.143 74.8778 22.8831 74.8801C22.2207 74.8801 21.6814 74.6817 21.6859 73.9278C21.6904 73.2136 22.2073 73.0284 22.8384 73.0328C23.3978 73.0372 23.9573 73.0328 24.5167 73.0328C25.4544 73.0328 26.392 73.0328 27.3363 73.0328V70.2642C26.9873 70.2642 26.6874 70.2642 26.3875 70.2642C25.1567 70.2642 23.9259 70.2774 22.6974 70.2532C22.0864 70.2421 21.668 69.9379 21.6836 69.2899C21.6993 68.6815 22.1088 68.4346 22.6862 68.4103C22.854 68.4037 23.0219 68.4037 23.1897 68.4037C27.4639 68.4037 31.7381 68.4037 36.0123 68.4037C46.4405 68.4037 56.8687 68.4037 67.2969 68.4037C67.5901 68.4037 67.8832 68.3729 68.192 68.3552V66.4992V66.4948ZM27.3811 78.817C26.9447 78.817 26.6135 78.8192 26.2846 78.817C24.2437 78.7971 22.1961 78.8809 20.1642 78.7288C15.9974 78.4158 13.0077 74.2849 13.9296 70.262C14.7017 66.8849 17.5482 64.6696 21.1578 64.6696C37.2655 64.6652 53.371 64.6674 69.4788 64.6652C69.8973 64.6652 70.3851 64.7754 70.7163 64.6057C71.0676 64.4249 71.4302 63.9973 71.504 63.6247C71.6002 63.142 71.2601 62.7342 70.6782 62.6879C70.3717 62.6636 70.0629 62.6703 69.7563 62.6703C62.9891 62.6703 56.222 62.6747 49.4549 62.6769C39.8927 62.6769 30.3283 62.6416 20.7661 62.6967C16.1831 62.7232 12.2871 66.2369 11.8306 70.5596C11.3226 75.3562 14.2094 79.6657 18.9065 80.5011C21.5136 80.9662 24.2482 80.7436 26.9268 80.7987C27.0745 80.8009 27.3408 80.5342 27.361 80.371C27.4191 79.8905 27.3811 79.3967 27.3811 78.8192V78.817ZM35.9631 72.9689H68.154V70.3061H35.9631V72.9689ZM35.9698 80.8185C36.3033 80.8185 36.527 80.8185 36.7486 80.8185C47.8481 80.8185 58.9499 80.8185 70.0494 80.8185C70.1882 80.8185 70.3291 80.8185 70.4679 80.8119C71.1348 80.7899 71.542 80.457 71.5331 79.7957C71.5241 79.1278 71.099 78.8214 70.4343 78.8192C69.6533 78.8192 68.8701 78.8148 68.0891 78.8148C57.6878 78.8148 47.2864 78.8148 36.8851 78.8148C36.5875 78.8148 36.2898 78.8148 35.9676 78.8148V80.8163L35.9698 80.8185ZM68.1898 74.944H35.9721V76.8816H68.1898V74.944ZM42.8198 52.8147C42.8198 52.4532 42.8309 52.1798 42.8198 51.9109C42.6497 48.3399 43.0861 44.8328 43.7798 41.3301C44.0573 39.9304 44.017 38.4204 43.829 36.9986C43.6254 35.46 43.1711 35.2462 41.5957 35.2462C41.4569 35.2462 41.3115 35.2682 41.1772 35.2418C40.5417 35.1249 40.2149 35.4534 39.9509 35.9758C39.2549 37.3491 39.1945 38.8062 39.4653 40.2544C40.2194 44.2685 40.8639 48.2848 40.611 52.3892C40.6021 52.5171 40.6491 52.6494 40.6782 52.8169H42.8242L42.8198 52.8147ZM57.5602 41.0237C57.8265 42.2383 58.4889 43.0715 59.3303 43.7769C60.9572 45.137 62.8951 45.7167 64.9808 45.7542C67.5543 45.8027 69.9308 45.1701 71.7479 43.2479C72.3051 42.6593 72.652 41.8746 73.198 41.0215H57.5602V41.0237ZM10.4901 41.0237C10.9735 43.7725 14.6703 45.935 18.4388 45.7696C22.2476 45.6021 25.5595 43.4749 25.7766 41.0237H10.4856H10.4901ZM29.3481 70.295V81.3211C29.8897 80.7061 30.3238 80.2013 30.7714 79.7097C31.4002 79.0198 31.8903 79.0154 32.5214 79.6965C32.9801 80.1903 33.421 80.6995 33.9625 81.3079V70.295H29.3504H29.3481ZM64.3117 27.3833C64.2625 27.3723 64.211 27.3613 64.1617 27.3524C62.1388 31.2277 60.1158 35.1029 58.0525 39.0552H64.3117V27.3833ZM19.2556 27.337C19.2131 27.3569 19.1683 27.3745 19.1258 27.3943V39.0597H25.3805C23.3016 35.0808 21.2786 31.21 19.2556 27.3392V27.337ZM17.17 39.0751V27.3657L17.0514 27.326C15.0217 31.2122 12.992 35.0963 10.9153 39.0751H17.17ZM72.5222 39.0839C70.4231 35.0698 68.3957 31.1924 66.272 27.1276V39.0839H72.5222ZM34.5533 60.7591H48.8507V58.5856H34.5533V60.7591ZM61.7606 21.1561C62.0358 20.4837 61.9597 20.1509 61.36 19.8577C60.2366 19.3088 59.1602 18.663 58.0883 18.0193C55.9579 16.7408 53.7492 15.6408 51.3301 14.9861C49.3116 14.4417 47.2596 14.1287 45.1225 14.0912V16.3484C45.4648 16.3484 45.7669 16.3264 46.0646 16.3528C47.7564 16.5027 49.4638 16.5711 51.1377 16.8444C53.9551 17.3073 56.4458 18.6519 58.9611 19.9062C59.8674 20.3581 60.814 20.7372 61.7583 21.1583L61.7606 21.1561ZM38.3039 14.0978C38.0443 14.0978 37.8272 14.0868 37.6124 14.0978C33.8238 14.3226 30.2366 15.2551 26.9224 17.1155C25.3223 18.0149 23.7603 18.9804 22.1334 19.8313C21.5382 20.1421 21.348 20.4353 21.6456 21.0877C21.988 20.9709 22.3371 20.8871 22.6549 20.7395C23.814 20.1994 24.9732 19.6549 26.1145 19.0774C28.7685 17.7327 31.5367 16.7452 34.5264 16.4675C35.7684 16.3528 37.0216 16.3484 38.3039 16.2933V14.0956V14.0978ZM42.5042 30.1079V19.2493H40.9243V30.1079H42.5042ZM43.1577 17.2831V11.5143H40.2687V17.2831H43.1577ZM37.7064 54.7567V56.6172H45.7177V54.7567H37.7064ZM40.7565 7.40545C40.1747 7.83088 39.7629 8.11744 39.3691 8.42605C39.011 8.7038 38.6731 9.00579 38.3262 9.29897C38.8141 9.40918 39.2974 9.60316 39.7875 9.61639C41.3249 9.65607 42.8623 9.64064 44.3996 9.60978C44.6369 9.60537 44.8696 9.40698 45.1046 9.29676C45.0061 9.12482 44.9501 8.89778 44.8047 8.78977C44.1759 8.32245 43.5202 7.8904 42.822 7.40765H40.7565V7.40545ZM41.6695 2.0401C40.6894 2.06655 39.8681 2.902 39.8793 3.86529C39.8905 4.85944 40.7856 5.69047 41.7948 5.64418C42.7683 5.6001 43.5828 4.7338 43.5426 3.78152C43.5045 2.81823 42.6363 2.01145 41.6673 2.0379L41.6695 2.0401ZM41.7434 32.0278C41.7434 32.0278 41.7434 32.03 41.7434 32.0322C41.0765 32.0322 40.4029 31.9749 39.7472 32.0587C39.4765 32.094 39.2437 32.4268 38.9953 32.6252C39.2214 32.8831 39.4384 33.3526 39.6779 33.3637C41.0362 33.4342 42.4035 33.4276 43.7641 33.3615C43.9991 33.3504 44.3773 32.9294 44.3862 32.6869C44.3929 32.4753 43.9968 32.094 43.7417 32.0565C43.0883 31.9661 42.4125 32.0256 41.7456 32.0256L41.7434 32.0278ZM65.2583 22.2053C66.1579 22.2097 66.7442 21.6542 66.7419 20.8034C66.7397 19.979 66.0907 19.3507 65.256 19.3617C64.4258 19.3706 63.7925 20.0208 63.8104 20.8453C63.8283 21.6476 64.4191 22.2009 65.2583 22.2053ZM18.1859 22.2053C19.0184 22.1943 19.6092 21.6256 19.6159 20.8254C19.6226 20.0032 18.9781 19.3617 18.1457 19.3617C17.3087 19.3617 16.6754 19.9966 16.6821 20.8254C16.6888 21.6741 17.2819 22.2186 18.1859 22.2075V22.2053Z" fill="#FF3854"/>
</svg>
