<svg width="108" height="109" viewBox="0 0 108 109" fill="none" xmlns="http://www.w3.org/2000/svg">
<g clip-path="url(#clip0_450_918)">
<path d="M-0.000117188 57.9554C0.562383 56.6138 1.15863 55.2835 1.68457 53.9279C5.19457 44.8857 8.68769 35.8351 12.1893 26.7901C12.7518 25.3388 13.1118 25.1757 14.563 25.7354C18.9421 27.4201 23.3183 29.1132 27.6946 30.8035C29.5424 31.5179 29.6408 31.7372 28.9377 33.5991C28.8421 33.8551 28.7521 34.1138 28.6311 34.4513C30.4818 35.1629 32.2733 35.8463 34.0621 36.5382C35.6568 37.1541 35.8002 37.4747 35.2011 39.0441C34.8524 39.9582 34.5093 40.8722 34.1352 41.8566C36.7396 42.3601 39.2005 42.0929 41.608 41.2294C42.4968 40.9116 43.3743 40.5488 44.2405 40.1719C46.7633 39.0722 49.0246 39.5082 51.0749 41.2857C51.3927 41.5613 51.7161 41.8285 52.0958 42.1463C53.038 41.5107 53.9802 40.8582 54.9393 40.2338C57.3102 38.6954 59.8021 38.5097 62.1646 40.0679C65.7027 42.4051 69.5277 42.4726 73.6536 41.9072C73.2261 40.7822 72.8183 39.7276 72.4274 38.6644C72.0364 37.5957 72.2418 37.1288 73.3133 36.7069C75.2315 35.9532 77.1552 35.2163 79.1521 34.4401C78.9327 33.8579 78.7218 33.346 78.5446 32.8257C78.2774 32.0438 78.4799 31.4307 79.2843 31.1185C84.0824 29.2566 88.8805 27.3891 93.6899 25.5554C94.6461 25.1897 95.0989 25.4991 95.5518 26.6663C98.4346 34.111 101.312 41.5613 104.195 49.006C105.306 51.8804 106.425 54.7519 107.53 57.6291C108.006 58.8638 107.797 59.3363 106.563 59.8144C102.088 61.5469 97.6105 63.2682 93.1358 64.9922C91.4989 65.6222 91.1811 65.4788 90.5399 63.8532C90.4274 63.5663 90.298 63.2851 90.1293 62.8941C88.2955 63.5972 86.5068 64.2807 84.718 64.9726C83.1318 65.5857 82.7802 65.4394 82.1783 63.8926C81.7846 62.8829 81.3964 61.8704 80.9605 60.7369C78.778 62.7619 77.6502 65.7938 74.4861 66.7304C75.479 68.4488 76.0246 70.1588 74.9108 71.9222C73.8421 73.6154 72.2024 74.1441 70.273 73.9472C69.508 76.2029 68.0005 77.3054 65.8546 77.1507C65.1149 78.166 64.6114 79.2966 63.7424 79.9182C62.9127 80.5116 61.7061 80.5763 60.6655 80.8744C60.6149 80.7676 60.5671 80.6579 60.5164 80.551C60.4236 80.7704 60.3336 80.9897 60.238 81.2091C59.068 83.8922 55.8618 84.6263 53.7018 82.6491C52.7483 81.7744 51.9327 80.7507 50.9821 79.7157C49.7164 81.0263 48.538 82.0894 46.7858 81.8841C45.0393 81.6788 43.9368 80.6494 43.3321 78.9957C40.9443 79.3332 39.2793 78.436 38.458 76.1607C35.3727 76.5769 32.7683 74.3101 33.8736 70.6594C33.3702 70.2657 32.7993 69.9197 32.3521 69.4529C31.4352 68.5022 31.2186 67.321 31.4014 66.0357C31.4464 65.7207 31.4886 65.2735 31.3143 65.0822C29.9333 63.5635 28.5018 62.0897 26.9408 60.4529C26.3811 61.8901 25.9368 63.0544 25.4699 64.2132C25.0199 65.3326 24.5586 65.5351 23.428 65.1019C21.5352 64.3791 19.648 63.6451 17.6427 62.8688C17.4233 63.4144 17.2321 63.8897 17.0464 64.3651C16.7061 65.2397 16.1099 65.5547 15.2155 65.206C10.4483 63.361 5.67832 61.5188 0.916758 59.6569C0.576445 59.5247 0.30082 59.2266 -0.00292969 59.0044C-0.00292969 58.6529 -0.00292969 58.3013 -0.00292969 57.9526L-0.000117188 57.9554ZM52.6161 78.1913C53.5246 79.1251 54.3514 80.0335 55.243 80.8744C55.9996 81.5888 57.0458 81.5551 57.6983 80.8857C58.3311 80.236 58.3368 79.2882 57.6646 78.5204C57.1583 77.941 56.593 77.4094 56.0558 76.8554C55.2768 76.0538 55.1558 75.3901 55.7633 74.8726C56.5424 74.2116 57.1668 74.6194 57.763 75.2269C58.6208 76.1044 59.4786 76.9876 60.3814 77.8144C61.093 78.4641 62.0014 78.4697 62.5752 77.9269C63.2727 77.2632 63.3655 76.2085 62.7721 75.4547C62.5105 75.1257 62.2096 74.8276 61.9143 74.5294C60.4799 73.0866 59.0371 71.6522 57.6055 70.2066C57.0543 69.6469 56.9755 69.0141 57.5521 68.446C58.1005 67.906 58.6996 68.0382 59.2339 68.5304C59.4393 68.7188 59.6361 68.9241 59.833 69.121C61.5486 70.8282 63.2558 72.5438 64.9827 74.2397C65.7308 74.9738 66.7405 74.9907 67.4268 74.3269C68.1074 73.6688 68.1327 72.7801 67.4689 71.9701C67.1596 71.5904 66.8108 71.2416 66.4649 70.8957C64.6086 69.031 62.7439 67.1747 60.8905 65.3072C60.3364 64.7504 60.2296 64.1288 60.823 63.5522C61.3714 63.0179 61.9649 63.1247 62.5077 63.6197C62.6624 63.7632 62.8114 63.9122 62.9605 64.0613C65.2443 66.3422 67.528 68.6204 69.8089 70.9041C70.8889 71.9869 72.4893 71.7901 73.0208 70.4822C73.3977 69.5569 73.0124 68.761 72.4555 68.0466C70.9058 66.0554 69.3871 64.036 67.7699 62.0982C64.6508 58.3576 61.1043 55.0838 56.9558 52.5019C56.6521 52.3135 56.1796 52.2038 55.8449 52.2882C53.9043 52.7776 52.3377 53.7057 51.7077 55.8094C51.5249 56.4141 51.0721 57.0272 50.5743 57.4322C49.5364 58.2816 48.4733 59.2069 47.2611 59.7104C45.6496 60.3797 43.9677 60.0929 42.688 58.7851C41.4139 57.4829 41.6389 55.9613 42.1818 54.3666C42.7414 52.7185 43.1943 51.0226 43.5627 49.321C44.1786 46.4607 45.4358 44.2641 48.6224 43.7719C49.0161 43.7101 49.3874 43.5132 49.8036 43.3669C48.2483 41.7497 47.053 41.4882 44.8114 42.4951C41.3436 44.0532 37.783 44.8772 33.9777 44.2529C33.4433 44.1657 33.1649 44.3063 32.9596 44.8463C31.3283 49.1326 29.6549 53.4047 28.0208 57.691C27.9308 57.9272 27.9364 58.3547 28.0883 58.501C29.7674 60.1322 31.483 61.7269 33.2605 63.4004C34.3743 62.2613 35.5133 61.0716 36.6805 59.9101C37.8646 58.7316 39.3355 58.3407 40.8261 59.0241C41.7824 59.4629 42.5333 60.3516 43.5149 61.1532C46.9236 60.1322 49.1961 62.731 48.7996 65.8388C51.0327 66.6854 51.9805 68.3166 51.6093 70.6707C55.1136 72.4229 55.3893 74.5351 52.6218 78.1885L52.6161 78.1913ZM81.1124 32.9326C84.9711 42.9141 88.7877 52.7776 92.6183 62.686C96.868 61.0379 100.96 59.4516 105.092 57.8485C101.233 47.8754 97.4277 38.0316 93.5914 28.1176C89.4036 29.7319 85.3311 31.3041 81.1124 32.9326ZM15.1789 62.6719C19.0405 52.6847 22.843 42.8438 26.6764 32.9297C22.4689 31.3013 18.3739 29.7179 14.203 28.1035C10.3471 38.0766 6.53895 47.926 2.69988 57.8513C6.86801 59.4601 10.9658 61.0435 15.1789 62.6719ZM58.2889 50.3785C60.1789 51.8522 62.0211 53.1938 63.7593 54.6591C66.9908 57.3844 69.7358 60.5794 72.2671 63.9488C72.8324 64.7026 73.3893 64.8629 74.0952 64.3735C74.8883 63.8222 75.6927 63.2401 76.348 62.5397C77.4955 61.3135 78.5474 59.9972 79.6021 58.6894C79.7708 58.4785 79.8664 58.0538 79.7764 57.8119C78.1255 53.4722 76.4521 49.141 74.7393 44.8266C74.6352 44.5622 74.1458 44.2838 73.8421 44.2922C72.6524 44.3232 71.4683 44.5201 70.2814 44.5538C67.3649 44.6382 64.4736 44.3204 62.0155 42.6385C59.5911 40.9791 57.4086 41.1197 55.1839 42.8747C54.5793 43.3501 53.9718 43.8535 53.2911 44.1994C51.9889 44.8632 50.6868 45.6704 49.2861 45.9657C47.1233 46.4213 46.3189 47.7797 45.8802 49.7063C45.4471 51.6104 44.8677 53.4779 44.353 55.3622C44.2968 55.5647 44.2124 55.7588 44.1674 55.9613C43.9677 56.8472 44.308 57.3844 45.1968 57.5616C46.2346 57.7697 47.188 57.4801 47.9361 56.7966C49.3283 55.5254 50.4027 54.0151 50.7514 52.1138C50.9118 51.2335 51.3646 50.7976 52.2364 50.8285C53.5358 50.8763 54.6439 50.4038 55.6002 49.5769C56.2077 49.051 56.7646 48.466 57.3186 47.8838C57.8558 47.3185 58.4633 47.1413 59.0736 47.6701C59.6924 48.2072 59.5686 48.8485 59.0877 49.4391C58.8261 49.7626 58.5505 50.0776 58.2974 50.3757L58.2889 50.3785ZM32.8611 38.6082C31.1118 37.936 29.4636 37.3004 27.7677 36.6479C24.6514 44.7141 21.5774 52.6622 18.4808 60.6751C20.2358 61.3501 21.8811 61.9857 23.5714 62.6354C26.6849 54.586 29.7477 46.6576 32.8611 38.6082ZM89.3165 60.6694C86.1918 52.5947 83.1149 44.6382 80.0183 36.6366C78.2436 37.3313 76.6011 37.9754 74.9614 38.6138C78.0861 46.6941 81.1602 54.6366 84.254 62.6326C85.9611 61.9688 87.5868 61.3416 89.3165 60.6694ZM46.6677 64.7869C46.2655 64.3088 45.9814 63.7435 45.5258 63.4876C44.8508 63.1051 44.1871 63.4032 43.6414 63.9544C41.2986 66.3113 38.9361 68.6541 36.5961 71.0138C35.803 71.8126 35.758 72.7885 36.4302 73.4185C37.0771 74.026 38.008 73.9529 38.7618 73.1991C41.1186 70.8535 43.4755 68.5079 45.8071 66.1369C46.1333 65.8079 46.3218 65.341 46.6705 64.7869H46.6677ZM40.5589 75.2466C40.9358 75.7163 41.2114 76.3772 41.653 76.5179C42.1508 76.6782 42.9833 76.5685 43.3489 76.231C45.2502 74.4732 47.0614 72.6169 48.8699 70.7635C49.5083 70.1082 49.4661 69.1716 48.8811 68.5922C48.2596 67.9763 47.4214 67.9482 46.7296 68.626C44.8986 70.4119 43.093 72.2232 41.3014 74.0485C41.0258 74.3297 40.8711 74.7347 40.5561 75.2494L40.5589 75.2466ZM41.2058 62.4919C40.8261 62.0476 40.5533 61.4429 40.1202 61.2938C39.6449 61.1307 38.8461 61.1897 38.503 61.4991C36.9758 62.8801 35.5443 64.3707 34.1155 65.8585C33.4883 66.5138 33.5389 67.2619 34.1408 67.9285C34.7118 68.5585 35.5808 68.581 36.2811 67.9116C37.7211 66.5335 39.1218 65.116 40.5055 63.6872C40.7783 63.406 40.9189 62.9926 41.203 62.4919H41.2058ZM46.963 79.6426C47.4074 79.4991 47.7449 79.4907 47.9221 79.3163C49.2777 78.0057 50.6502 76.7063 51.9102 75.3085C52.4333 74.7291 52.2336 73.9613 51.6486 73.4241C51.103 72.9207 50.3802 72.7857 49.8346 73.2891C48.4761 74.5435 47.1514 75.8457 45.928 77.2294C45.658 77.536 45.6918 78.3235 45.8802 78.7622C46.0518 79.1616 46.6255 79.3838 46.963 79.6426Z" fill="#FF3854"/>
<path d="M86.5804 36.2457C86.2176 35.8942 85.6607 35.5989 85.5876 35.2135C85.5145 34.8198 85.8041 34.0942 86.136 33.9395C87.517 33.287 88.9541 32.7329 90.4138 32.2885C90.771 32.1789 91.5051 32.4995 91.6823 32.8285C91.8595 33.1604 91.7076 34.0492 91.446 34.1785C89.9245 34.9295 88.3298 35.5257 86.5776 36.2514L86.5804 36.2457Z" fill="#FF3854"/>
<path d="M21.2006 36.2457C19.4484 35.5201 17.8565 34.9154 16.3293 34.1729C16.0734 34.0492 15.8934 33.211 16.0565 32.9129C16.2506 32.5613 16.9424 32.1676 17.2715 32.2688C18.7987 32.7385 20.2949 33.3235 21.7462 33.9901C22.0415 34.1279 22.2974 34.8563 22.199 35.2135C22.0921 35.6101 21.5606 35.8942 21.1978 36.2429L21.2006 36.2457Z" fill="#FF3854"/>
</g>
<defs>
<clipPath id="clip0_450_918">
<rect width="108" height="108" fill="white" transform="translate(0 0.692871)"/>
</clipPath>
</defs>
</svg>
