<svg viewBox="0 0 69 69" fill="none" xmlns="http://www.w3.org/2000/svg">
<path d="M36.9245 25.6029H31.2578V19.9362H36.9245M36.9245 48.2695H31.2578V31.2695H36.9245M34.0911 5.76953C30.3704 5.76953 26.686 6.50239 23.2484 7.92628C19.8109 9.35016 16.6874 11.4372 14.0565 14.0682C8.74292 19.3817 5.75781 26.5884 5.75781 34.1029C5.75781 41.6173 8.74292 48.824 14.0565 54.1376C16.6874 56.7685 19.8109 58.8556 23.2484 60.2795C26.686 61.7033 30.3704 62.4362 34.0911 62.4362C41.6056 62.4362 48.8123 59.4511 54.1258 54.1376C59.4394 48.824 62.4245 41.6173 62.4245 34.1029C62.4245 30.3821 61.6916 26.6977 60.2677 23.2602C58.8438 19.8226 56.7568 16.6992 54.1258 14.0682C51.4948 11.4372 48.3714 9.35016 44.9338 7.92628C41.4963 6.50239 37.8119 5.76953 34.0911 5.76953Z" fill="#CF0F2A"/>
</svg>
