<svg viewBox="0 0 44 45" fill="none" xmlns="http://www.w3.org/2000/svg">
<path d="M27.5 22.9438H31.1667C31.1667 20.5127 30.2009 18.1811 28.4818 16.462C26.7627 14.743 24.4312 13.7772 22 13.7772V17.4438C23.4587 17.4438 24.8576 18.0233 25.8891 19.0548C26.9205 20.0862 27.5 21.4852 27.5 22.9438ZM34.8333 22.9438H38.5C38.5 13.7772 31.1117 6.44385 22 6.44385V10.1105C29.0767 10.1105 34.8333 15.8488 34.8333 22.9438ZM36.6667 29.3605C34.375 29.3605 32.175 28.9938 30.1217 28.3155C29.48 28.1138 28.765 28.2605 28.2517 28.7738L24.2183 32.8072C19.03 30.1672 14.7767 25.9138 12.1367 20.7255L16.17 16.6922C16.6833 16.1788 16.83 15.4638 16.6283 14.8222C15.95 12.7688 15.5833 10.5688 15.5833 8.27718C15.5833 7.79095 15.3902 7.32464 15.0464 6.98082C14.7025 6.637 14.2362 6.44385 13.75 6.44385H7.33333C6.8471 6.44385 6.38079 6.637 6.03697 6.98082C5.69315 7.32464 5.5 7.79095 5.5 8.27718C5.5 16.5431 8.78362 24.4705 14.6285 30.3153C20.4734 36.1602 28.4008 39.4438 36.6667 39.4438C37.1529 39.4438 37.6192 39.2507 37.963 38.9069C38.3068 38.5631 38.5 38.0967 38.5 37.6105V31.1938C38.5 30.7076 38.3068 30.2413 37.963 29.8975C37.6192 29.5537 37.1529 29.3605 36.6667 29.3605Z" fill="#CF0F2A"/>
</svg>
