<svg width="201" height="51" viewBox="0 0 201 51" fill="none" xmlns="http://www.w3.org/2000/svg">
<path d="M18.6738 41.5536H40.4638V46.0736H18.6738V41.5536ZM176.254 27.0436L183.124 19.4636H178.004L172.374 25.7636V19.4636H168.294V35.3936H172.394V28.6836L178.414 35.3936H183.674L176.254 27.0436ZM42.8638 28.0936C42.7538 31.0936 42.3738 31.6636 40.7138 31.6636V35.4036H41.3338C45.5038 35.4036 46.4938 33.2536 46.6438 28.4636L46.8238 23.1636H50.6738V35.3936H54.7538V19.4636H43.1438L42.8638 28.0936ZM25.1538 30.8336H33.7538L35.1838 35.3936H39.9538L33.5238 16.2336C32.9038 14.3836 32.1838 12.9136 29.7238 12.9136C27.2638 12.9136 26.5138 14.3836 25.8538 16.2336L19.1138 35.3936H23.5938L25.1538 30.8336ZM29.5138 17.9136H29.6238L32.5038 26.9936H26.4438L29.5138 17.9136ZM124.824 21.7236H120.274V17.2236H130.834V13.2236H115.994V35.3936H124.824C129.714 35.3936 132.524 32.9536 132.524 28.4936C132.524 24.2636 129.674 21.7236 124.824 21.7236ZM124.614 31.3836H120.274V25.6236H124.614C126.874 25.6236 128.144 26.6236 128.144 28.5036C128.144 30.3836 126.874 31.3836 124.614 31.3836ZM84.2638 19.0936V13.1936H80.1938V19.0936C78.0567 19.1641 76.0349 20.0799 74.5724 21.6398C73.11 23.1998 72.3264 25.2764 72.3938 27.4136C72.321 29.5552 73.1018 31.638 74.5646 33.2039C76.0273 34.7699 78.0522 35.6906 80.1938 35.7636V41.7636H84.2738V35.7636C85.3346 35.7287 86.3782 35.485 87.3446 35.0462C88.3111 34.6075 89.1815 33.9824 89.9061 33.2068C90.6306 32.4311 91.195 31.5202 91.567 30.5261C91.939 29.532 92.1112 28.4743 92.0738 27.4136C92.1166 26.3522 91.9475 25.2929 91.5766 24.2976C91.2056 23.3022 90.6401 22.3907 89.9131 21.6162C89.1861 20.8418 88.3121 20.2198 87.3422 19.7867C86.3722 19.3536 85.3258 19.118 84.2638 19.0936ZM80.2038 31.9136C79.124 31.795 78.1341 31.2567 77.4476 30.4149C76.761 29.5731 76.4328 28.4952 76.5338 27.4136C76.4458 26.3347 76.7787 25.2636 77.4629 24.4248C78.147 23.5859 79.1293 23.0444 80.2038 22.9136V31.9136ZM84.2838 31.9136V22.9136C85.3583 23.0444 86.3406 23.5859 87.0247 24.4248C87.7089 25.2636 88.0418 26.3347 87.9538 27.4136C88.0495 28.4941 87.7194 29.5692 87.0338 30.4099C86.3483 31.2505 85.3615 31.7901 84.2838 31.9136ZM107.364 30.5036V25.1336C107.364 21.2136 104.874 18.7636 100.694 18.7636C96.5138 18.7636 94.0738 21.3636 93.8738 24.0736H98.0038C98.1438 23.4936 98.7638 22.4636 100.684 22.4636C101.043 22.4174 101.407 22.4552 101.748 22.5742C102.09 22.6932 102.399 22.8899 102.651 23.149C102.903 23.408 103.092 23.7222 103.202 24.0666C103.312 24.4111 103.34 24.7764 103.284 25.1336H99.2838C95.6638 25.1336 93.5138 27.0436 93.5138 30.2036C93.4856 30.9577 93.616 31.7093 93.8966 32.4098C94.1773 33.1103 94.6019 33.744 95.143 34.27C95.684 34.796 96.3295 35.2025 97.0377 35.4633C97.7458 35.724 98.5008 35.8331 99.2538 35.7836C100.104 35.8283 100.952 35.6628 101.723 35.3018C102.494 34.9407 103.164 34.3953 103.674 33.7136C104.006 34.2751 104.49 34.7309 105.071 35.0282C105.651 35.3256 106.304 35.4523 106.954 35.3936H108.364V31.7136C107.674 31.7136 107.364 31.3836 107.364 30.5036ZM103.284 29.5036C103.301 29.8975 103.234 30.2905 103.087 30.6566C102.941 31.0227 102.719 31.3537 102.436 31.6277C102.152 31.9017 101.814 32.1125 101.443 32.2463C101.072 32.38 100.677 32.4336 100.284 32.4036C98.8138 32.4036 97.6538 31.8736 97.6538 30.2836C97.6538 28.6936 98.9438 28.4636 100.034 28.4636H103.284V29.5036ZM64.9138 24.3036H61.9838V19.4636H57.9038V35.3936H64.9838C69.4138 35.3936 70.9838 32.5136 70.9838 29.7936C71.0038 26.2836 68.8038 24.3036 64.9138 24.3036ZM64.6138 31.9136H61.9838V27.9136H64.6138C66.0238 27.9136 66.8738 28.5536 66.8738 29.9136C66.8738 31.2736 66.0638 31.9136 64.6138 31.9136ZM148.094 30.5036V25.1336C148.094 21.2136 145.604 18.7636 141.424 18.7636C137.244 18.7636 134.804 21.3636 134.604 24.0736H138.734C138.874 23.4936 139.494 22.4636 141.414 22.4636C141.773 22.4174 142.137 22.4552 142.478 22.5742C142.82 22.6932 143.129 22.8899 143.381 23.149C143.633 23.408 143.822 23.7222 143.932 24.0666C144.042 24.4111 144.07 24.7764 144.014 25.1336H140.014C136.394 25.1336 134.244 27.0436 134.244 30.2036C134.216 30.9577 134.346 31.7093 134.627 32.4098C134.907 33.1103 135.332 33.744 135.873 34.27C136.414 34.796 137.06 35.2025 137.768 35.4633C138.476 35.724 139.231 35.8331 139.984 35.7836C140.842 35.8367 141.7 35.6753 142.481 35.314C143.261 34.9526 143.939 34.4026 144.454 33.7136C144.781 34.2653 145.256 34.7148 145.825 35.0116C146.394 35.3084 147.034 35.4407 147.674 35.3936H149.084V31.7136C148.374 31.7136 148.094 31.3836 148.094 30.5036ZM144.034 29.5036C144.049 29.8971 143.981 30.2893 143.834 30.6547C143.687 31.0201 143.465 31.3504 143.182 31.6241C142.899 31.8977 142.561 32.1086 142.191 32.243C141.821 32.3773 141.427 32.432 141.034 32.4036C139.564 32.4036 138.404 31.8736 138.404 30.2836C138.404 28.6936 139.694 28.4636 140.784 28.4636H144.034V29.5036ZM161.124 25.3936H155.494V19.4636H151.414V35.4036H155.494V29.1236H161.124V35.3936H165.204V19.4636H161.124V25.3936Z" fill="#EF3124"/>
</svg>
