<svg width="166" height="48" viewBox="0 0 166 48" fill="none" xmlns="http://www.w3.org/2000/svg">
<path d="M46.7709 38.2817C46.7709 43.7839 43.7141 46.8407 38.2119 46.8407H10.0441C4.5419 46.8407 1.48511 43.7839 1.48511 38.2817V10.1139C1.48511 4.61166 4.5419 1.55487 10.0441 1.55487H38.2232C43.7141 1.55487 46.7709 4.61166 46.7709 10.1139V38.2817Z" fill="#FFE600"/>
<path fill-rule="evenodd" clip-rule="evenodd" d="M30.6039 21.9898V17.6652L32.1656 16.1022V19.8496L33.525 21.2079L38.9925 15.7403L40.3402 17.0867C40.3285 16.0685 40.1249 13.1136 37.6227 10.6568C34.9285 8.05337 32.0074 9.22996 31.0112 10.2262L25.5541 15.6832L26.9471 17.0763L24.1284 19.9171L21.3086 17.0984L22.7016 15.7065L17.2445 10.2495C16.2484 9.25324 13.3272 8.07548 10.633 10.6789C8.13083 13.1357 7.92717 16.0906 7.91553 17.1101L9.26321 15.7624L14.7307 21.2311L16.0901 19.8729V16.1254L17.6519 17.6873V22.012L19.848 24.1976L9.02462 35.0209L13.3051 39.2886L24.1284 28.4769L34.9506 39.3002L39.231 35.0315L28.4077 24.1976L30.6039 21.9898ZM54.3232 26.0888H62.4862V28.6585H57.3806V31.2967H59.0786C60.2213 31.2967 61.6936 31.4329 62.8027 32.5199C63.2787 32.9947 63.8675 33.8665 63.8675 35.27C63.8675 35.6937 63.8152 36.0998 63.714 36.4793C63.5441 37.1124 63.2357 37.6686 62.8027 38.1004C62.5083 38.3948 62.1743 38.6206 61.8077 38.7917C61.6413 38.8685 61.4678 38.9348 61.2875 38.9918C61.199 39.0198 61.1094 39.0454 61.0175 39.0687C60.3518 39.2374 59.6092 39.2898 58.8178 39.2898H54.3232V26.0888ZM58.5804 36.8331C58.9994 36.8331 59.7465 36.7992 60.2213 36.414C60.3134 36.3349 60.4704 36.1789 60.5857 35.9311C60.6694 35.753 60.7312 35.5272 60.7312 35.2479C60.7312 35.1479 60.723 35.0535 60.7091 34.9651C60.6939 34.8708 60.6706 34.7835 60.6427 34.7021C60.5985 34.5741 60.5403 34.4623 60.4751 34.3658C60.4135 34.275 60.3447 34.1981 60.2761 34.1341C60.2458 34.1062 60.2156 34.0806 60.1853 34.0574L60.1422 34.0248C59.6674 33.6849 58.897 33.6745 58.5804 33.6745H57.3689V36.8446H58.5804V36.8331ZM74.9388 30.4588H72.0863V31.455C71.5359 30.7068 70.8038 30.3808 70.1567 30.2483C69.8461 30.1842 69.5551 30.1644 69.3118 30.1644C68.0899 30.1644 67.0144 30.6055 66.244 31.3759C65.4294 32.1906 64.8742 33.4591 64.8742 34.9418C64.8742 36.1079 65.2362 37.2625 66.1649 38.2482C67.139 39.2781 68.2027 39.5947 69.4713 39.5947C69.8448 39.5947 70.3162 39.5482 70.7899 39.3456C71.2472 39.1501 71.7081 38.8091 72.0863 38.2249V39.2898H74.9388V30.4588ZM67.8071 34.8627C67.8071 34.4262 67.9164 34.0724 68.0643 33.7931C68.1853 33.5662 68.3308 33.3882 68.4635 33.2555C68.837 32.8819 69.4026 32.6212 70.0147 32.6328C70.535 32.6328 71.1693 32.8249 71.5987 33.2438C71.6779 33.3183 71.7511 33.3998 71.8175 33.4871C71.8932 33.5883 71.9595 33.6977 72.0165 33.8129C72.1725 34.126 72.2563 34.4868 72.2563 34.8627C72.2563 35.6214 71.9385 36.1766 71.565 36.5269C71.3788 36.7132 71.153 36.8655 70.9016 36.9715C70.6491 37.0786 70.3709 37.1379 70.0823 37.1379C69.4026 37.1379 68.7916 36.8668 68.3948 36.4478C68.1457 36.165 67.8071 35.6553 67.8071 34.8627ZM76.6601 30.4588H79.5125V33.5266H82.706V30.4588H85.5585V39.2898H82.706V35.8251H79.5125V39.2898H76.6601V30.4588ZM90.1206 30.4588H87.2681V39.2898H90.1206V35.3725L93.1325 39.2898H96.8124L92.7705 34.5578L96.5518 30.4588H93.0079L90.1206 33.9688V30.4588ZM58.975 9.10661C60.119 9.10661 61.3876 9.26488 62.4396 10.1936C63.5719 11.1782 63.7302 12.4922 63.7302 13.3975C63.7302 15.0618 63.096 15.9905 62.5978 16.5107C61.5458 17.5756 60.1644 17.6768 59.2357 17.6768H57.3794V22.3076H54.3337V9.10661H58.975ZM57.3678 15.1863H58.4547C58.6165 15.1863 58.8225 15.1828 59.0436 15.1513C59.3986 15.1013 59.7908 14.9803 60.0969 14.6882C60.3681 14.4159 60.595 13.9526 60.595 13.3859C60.595 13.1322 60.5542 12.8983 60.4809 12.6934C60.3948 12.4514 60.2621 12.2477 60.0969 12.0952C59.6429 11.6658 58.9866 11.5971 58.3977 11.5971H57.3678V15.1863ZM74.0218 13.4767H71.1693V14.4728C70.7783 13.9411 70.2953 13.6221 69.817 13.4348C69.2979 13.2311 68.7834 13.1822 68.3948 13.1822C67.1727 13.1822 66.0974 13.6233 65.327 14.3937C64.5123 15.2084 63.9572 16.477 63.9572 17.9596C63.9572 18.7137 64.1085 19.4632 64.4669 20.165C64.6624 20.5491 64.9196 20.918 65.2478 21.2661C66.2219 22.296 67.2857 22.6125 68.5542 22.6125C68.9266 22.6125 69.3944 22.5671 69.8659 22.367C70.3255 22.1714 70.7887 21.8304 71.1693 21.2427V22.3076H74.0218V13.4767ZM66.89 17.8805C66.89 17.088 67.252 16.5678 67.5463 16.2733C67.9199 15.8997 68.4972 15.6391 69.0977 15.6506C69.2513 15.6506 69.4143 15.6682 69.5795 15.7019C69.6761 15.7216 69.7727 15.7473 69.8693 15.7798C70.1661 15.8799 70.4523 16.0383 70.6817 16.2616C70.9004 16.4688 71.0704 16.7283 71.1821 17.0205C71.2298 17.1449 71.267 17.2754 71.2938 17.4092C71.3054 17.4674 71.3148 17.5267 71.3217 17.5873C71.3276 17.6349 71.3311 17.6838 71.3334 17.7327C71.3369 17.7815 71.3391 17.8304 71.3391 17.8805C71.3391 18.6392 71.0215 19.1945 70.6478 19.5447C70.4523 19.7403 70.2138 19.8985 69.9473 20.0056C69.8437 20.0475 69.7354 20.0813 69.6237 20.1057L69.5004 20.1302L69.3852 20.1441C69.313 20.1522 69.2397 20.1558 69.1652 20.1558C68.8684 20.1558 68.5845 20.1033 68.3249 20.0103C67.9921 19.8904 67.7011 19.7019 67.4777 19.4656C67.2286 19.1828 66.89 18.6731 66.89 17.8805ZM78.5955 13.4767V18.5264L82.3546 13.4767H85.0046V22.3076H82.1509V17.1788L78.3918 22.3076H75.7431V13.4767H78.5955ZM83.9629 9.91079C83.7244 10.623 83.2495 11.2352 82.6944 11.5971C81.9472 12.0952 81.0302 12.1523 80.3738 12.1523C79.7173 12.1523 78.8108 12.0952 78.0532 11.5971C77.988 11.5552 77.9239 11.511 77.8611 11.4621C77.7901 11.4074 77.7204 11.3481 77.6528 11.2841C77.5807 11.2154 77.5108 11.1433 77.4433 11.0664C77.1605 10.7406 76.9289 10.3426 76.7846 9.91079L78.7654 9.14036C78.8446 9.53605 79.0377 9.85377 79.2751 10.0458C79.5359 10.2611 79.8641 10.3973 80.3621 10.3973C80.4844 10.3973 80.596 10.3891 80.6996 10.374L80.759 10.3647L80.8172 10.353L80.8951 10.3333L80.9731 10.31C81.1594 10.2483 81.313 10.1575 81.4491 10.0458C81.6865 9.85377 81.8797 9.53605 81.9589 9.14036L83.9629 9.91079ZM91.31 22.4437V26.7114H94.1857V22.4437H94.2987C96.3027 22.4437 97.4118 21.6163 97.9216 21.1182C98.1834 20.861 98.4441 20.5328 98.6605 20.1243C98.6978 20.0544 98.7339 19.9823 98.7676 19.9078L98.8282 19.7705C98.9038 19.5878 98.9702 19.3922 99.0248 19.1817C99.0923 18.9244 99.1412 18.6463 99.168 18.3449C99.175 18.2599 99.1807 18.1738 99.1843 18.0853C99.1878 18.0062 99.1889 17.927 99.1889 17.8467C99.1889 17.2741 99.1029 16.7702 98.962 16.3304C98.8375 15.9393 98.6687 15.5994 98.4767 15.3073C98.4313 15.2375 98.3836 15.17 98.3347 15.1048L98.2928 15.0501L98.2207 14.9606C98.0402 14.7406 97.8495 14.5555 97.6608 14.4054C96.7892 13.7141 95.4764 13.3405 94.3103 13.3405H94.1742V9.10661H91.3216V13.3405H91.1855C90.0078 13.3405 88.7055 13.7141 87.8337 14.4054C87.0983 14.9943 86.3056 16.1034 86.3056 17.8467C86.3056 19.4539 86.94 20.5072 87.5742 21.1182C88.0828 21.6163 89.1931 22.4437 91.196 22.4437H91.31ZM90.7317 15.6995C90.9643 15.6483 91.2076 15.6274 91.4462 15.6391V20.1452C90.7211 20.1674 90.0415 19.8962 89.6679 19.4773C89.328 19.1257 89.0906 18.5486 89.0906 17.8584C89.0906 17.1566 89.328 16.5898 89.6679 16.25C89.9298 15.9812 90.3138 15.7914 90.7317 15.6995ZM95.8046 19.4889C95.4311 19.8962 94.763 20.179 94.0274 20.1569V15.6506C94.4861 15.6193 94.9561 15.7216 95.3414 15.9253C95.516 16.0184 95.6743 16.1313 95.8046 16.2616C95.9595 16.4164 96.0933 16.6201 96.1934 16.861C96.312 17.1508 96.3819 17.493 96.3819 17.8688C96.3819 18.5601 96.1444 19.1374 95.8046 19.4889ZM105.032 26.7114V22.4437H104.918C104.274 22.4437 103.722 22.3577 103.252 22.225C102.995 22.1529 102.763 22.0656 102.555 21.9713C101.959 21.7012 101.551 21.3684 101.297 21.1182C101.209 21.0344 101.122 20.9425 101.037 20.8412C100.963 20.7539 100.889 20.6597 100.819 20.5596C100.655 20.3244 100.503 20.0533 100.377 19.7438C100.236 19.3981 100.129 19.0047 100.072 18.5601C100.055 18.4263 100.042 18.2867 100.035 18.1435C100.03 18.0469 100.028 17.948 100.028 17.8467C100.028 16.1034 100.821 14.9943 101.556 14.4054C102.428 13.7141 103.73 13.3405 104.908 13.3405H105.044V9.10661H107.896V13.3405H108.033C108.395 13.3405 108.77 13.3766 109.143 13.4464C109.331 13.4813 109.519 13.5256 109.704 13.5791C109.867 13.6257 110.026 13.6792 110.182 13.7385C110.627 13.9096 111.039 14.1331 111.383 14.4054C112.12 14.9943 112.911 16.1034 112.911 17.8467C112.911 18.4869 112.811 19.0362 112.651 19.5064C112.506 19.9276 112.313 20.2849 112.1 20.584C111.953 20.7889 111.799 20.9657 111.644 21.1182C111.318 21.4371 110.745 21.891 109.849 22.1761C109.611 22.2517 109.349 22.3158 109.064 22.3623C108.747 22.4146 108.4 22.4437 108.021 22.4437H107.908V26.7114H105.032ZM105.169 15.6391C104.501 15.6053 103.798 15.8311 103.39 16.25C103.05 16.5898 102.813 17.1566 102.813 17.8584C102.813 18.5486 103.05 19.1257 103.39 19.4773C103.764 19.8962 104.444 20.1674 105.169 20.1452V15.6391ZM107.749 20.1569C108.485 20.179 109.153 19.8962 109.527 19.4889C109.707 19.3027 109.859 19.0525 109.961 18.7556C110.052 18.4926 110.104 18.1935 110.104 17.8688C110.104 17.1788 109.867 16.6015 109.527 16.2616C109.108 15.8427 108.417 15.6053 107.749 15.6506V20.1569ZM123.802 13.4767H120.949V14.4728C120.134 13.3638 118.923 13.1822 118.176 13.1822C116.953 13.1822 115.877 13.6233 115.107 14.3937C114.292 15.2084 113.738 16.477 113.738 17.9596C113.738 18.7022 113.884 19.44 114.23 20.1324C114.428 20.5281 114.691 20.9075 115.028 21.2661C116.002 22.296 117.066 22.6125 118.335 22.6125C119.07 22.6125 120.179 22.4322 120.949 21.2427V22.3076H123.802V13.4767ZM116.671 17.8805C116.671 17.5128 116.748 17.2044 116.861 16.9494C116.991 16.6538 117.169 16.4316 117.326 16.2733C117.7 15.8997 118.277 15.6391 118.879 15.6506C119.398 15.6506 120.032 15.8427 120.462 16.2616C120.881 16.6573 121.119 17.2463 121.119 17.8805C121.119 18.6392 120.802 19.1945 120.429 19.5447C120.055 19.9183 119.523 20.1558 118.945 20.1558C118.266 20.1558 117.655 19.8846 117.259 19.4656C117.139 19.3294 116.997 19.1398 116.884 18.8918C116.761 18.6253 116.671 18.2902 116.671 17.8805ZM128.376 13.4767V18.5264L132.135 13.4767H134.785V22.3076H131.931V17.1788L128.172 22.3076H125.523V13.4767H128.376ZM133.744 9.91079C133.633 10.2413 133.471 10.5497 133.274 10.822C133.137 11.0129 132.982 11.1852 132.814 11.3353C132.707 11.433 132.592 11.5203 132.475 11.5971C132.285 11.7228 132.085 11.8206 131.88 11.8974C131.645 11.9847 131.406 12.0429 131.17 12.0813C130.805 12.1406 130.453 12.1523 130.154 12.1523C129.498 12.1523 128.591 12.0952 127.834 11.5971C127.278 11.2457 126.802 10.623 126.565 9.91079L128.546 9.14036C128.625 9.53605 128.818 9.85377 129.055 10.0458C129.186 10.1529 129.333 10.2401 129.509 10.3007C129.686 10.3623 129.893 10.3973 130.142 10.3973C130.64 10.3973 130.969 10.2611 131.229 10.0458C131.35 9.94803 131.46 9.81768 131.55 9.66058C131.634 9.50928 131.701 9.33471 131.74 9.14036L133.744 9.91079ZM137.682 13.4987C137.207 13.6803 136.596 13.9969 136.222 14.2354L137.331 16.1488C137.616 15.9102 137.91 15.7297 138.284 15.5715C138.657 15.4121 138.996 15.3329 139.45 15.3329C139.924 15.3329 140.207 15.4354 140.343 15.4923C140.548 15.5843 140.661 15.7112 140.719 15.8322C140.76 15.9195 140.774 16.0033 140.774 16.0696C140.774 16.2396 140.695 16.499 140.355 16.6573C140.263 16.7004 140.14 16.7318 140.009 16.7551C139.753 16.8017 139.462 16.8168 139.29 16.8168H138.475V18.7522H139.539C139.857 18.7522 140.332 18.8092 140.571 18.9105C140.681 18.9593 140.775 19.021 140.844 19.099C140.937 19.2014 140.989 19.3318 140.989 19.4993C140.989 19.6285 140.963 19.7973 140.846 19.9521C140.787 20.0288 140.705 20.1033 140.592 20.1674C140.309 20.3257 139.879 20.3826 139.563 20.3826C139.262 20.3826 138.933 20.335 138.638 20.2593C138.476 20.2175 138.325 20.1674 138.193 20.1115C137.841 19.9521 137.422 19.6693 137.105 19.3981L135.894 21.2776C136.006 21.3673 136.189 21.5116 136.434 21.6699C136.548 21.7431 136.674 21.82 136.811 21.8956C137.011 22.005 137.236 22.1121 137.479 22.2052C138.272 22.4996 139.098 22.602 139.89 22.602C141.363 22.602 142.393 22.3868 143.139 21.6512C143.434 21.3567 143.627 21.0426 143.747 20.7248C143.863 20.4176 143.909 20.1057 143.909 19.8055C143.909 19.7275 143.907 19.6506 143.9 19.5762C143.896 19.5284 143.891 19.4808 143.883 19.4341L143.867 19.3364C143.795 18.9687 143.626 18.6428 143.322 18.3449C143.197 18.2204 142.788 17.8688 142.132 17.7105C142.2 17.6861 142.265 17.6559 142.331 17.6221C142.385 17.5942 142.439 17.5628 142.491 17.5291L142.557 17.4837C142.605 17.4511 142.65 17.4162 142.694 17.3801C142.759 17.3277 142.821 17.2707 142.879 17.2125C143.31 16.7598 143.411 16.2616 143.411 15.7065C143.411 15.5377 143.399 15.3713 143.368 15.2095C143.352 15.1211 143.33 15.0338 143.301 14.9478C143.204 14.6416 143.032 14.3531 142.754 14.0877C141.861 13.2159 140.242 13.1822 139.766 13.1822C139.086 13.1822 138.35 13.2613 137.682 13.4987ZM154.234 18.3903H147.645C147.645 18.5543 147.667 18.7382 147.71 18.9244C147.791 19.2759 147.949 19.6367 148.179 19.895C148.291 20.0207 148.416 20.1196 148.548 20.1953C148.64 20.2488 148.736 20.2918 148.831 20.3257C149.114 20.4269 149.401 20.4502 149.638 20.4502C149.795 20.4502 149.955 20.4386 150.109 20.4152C150.361 20.3757 150.598 20.3024 150.781 20.1895C150.815 20.1674 151.155 19.9521 151.393 19.4539L154.087 19.7263C153.691 20.9716 152.898 21.6279 152.389 21.9445C151.54 22.4542 150.589 22.6009 149.594 22.6009C148.268 22.6009 147.102 22.3634 146.072 21.3335C145.302 20.5631 144.747 19.3969 144.747 17.9259C144.747 16.6573 145.2 15.3563 146.094 14.4391C146.624 13.9085 147.223 13.5919 147.811 13.4081C148.403 13.2218 148.985 13.1706 149.479 13.1706C150.464 13.1706 151.891 13.3521 152.989 14.495C154.042 15.6053 154.234 16.9855 154.234 18.0842V18.3903ZM151.608 16.6911C151.585 16.6119 151.449 16.058 151.03 15.6611C150.914 15.5529 150.779 15.4575 150.626 15.3795C150.528 15.3283 150.421 15.2853 150.308 15.2515C150.119 15.1945 149.911 15.163 149.683 15.163C149.437 15.163 149.227 15.1956 149.044 15.2492C148.678 15.3574 148.422 15.5518 148.234 15.7403C148.019 15.9788 147.815 16.2954 147.736 16.6911H151.608ZM158.378 13.4767H155.525V22.3076H158.378V18.8429H161.571V22.3076H164.424V13.4767H161.571V16.5444H158.378V13.4767Z" fill="#2B2D34"/>
</svg>
