<svg width="200" height="51" viewBox="0 0 200 51" fill="none" xmlns="http://www.w3.org/2000/svg">
<path d="M108.956 6.69482L90.5959 9.09333V14.5265L108.956 12.888V6.69482Z" fill="#E4003A"/>
<path fill-rule="evenodd" clip-rule="evenodd" d="M105.48 19.146L90.5959 9.09906V14.5194L95.237 17.6631L96.1501 18.1958C94.4827 18.2158 93.6842 18.5545 92.8821 19.0388C90.5903 20.4205 89.4007 22.8503 89.4007 26.436C89.4007 32.4777 92.7356 35.3383 99.0884 35.3383C105.442 35.3383 108.793 32.4777 108.793 26.436C108.793 22.9391 107.659 20.548 105.48 19.146ZM99.0884 30.9205C95.939 30.9205 94.9478 29.774 94.9478 26.4823C94.9478 23.1906 95.9316 22.0441 99.0884 22.0441C102.246 22.0441 103.213 23.1683 103.213 26.4823C103.213 29.796 102.262 30.9205 99.0884 30.9205ZM52.8585 26.4823C52.8585 29.7796 53.8423 30.9205 56.9991 30.9205C60.156 30.9205 61.1233 29.774 61.1233 26.4823C61.1233 23.1906 60.1708 22.0441 56.9991 22.0441C53.8271 22.0441 52.8585 23.1683 52.8585 26.4823ZM47.3114 26.4343C47.3114 20.3925 50.6686 17.6279 56.9991 17.6279C63.3298 17.6279 66.7017 20.3925 66.7017 26.4343C66.7017 32.4758 63.3668 35.3367 56.9991 35.3367C50.6315 35.3367 47.3114 32.4758 47.3114 26.4343ZM31.7209 20.2206C32.3249 19.4548 34.7614 17.6056 37.7589 17.6056C42.7481 17.6056 45.4993 20.2945 45.4993 26.4027C45.4993 32.5106 42.7444 35.2256 37.7422 35.2256C34.7277 35.2256 32.3082 33.4096 31.6877 32.6273V40.7012H26.4019V18.0015H31.7209V20.2206ZM31.7247 26.3896C31.7247 29.6832 32.7159 30.8278 35.8654 30.8278V30.8206C39.037 30.8206 39.9876 29.6997 39.9876 26.3896C39.9876 23.0795 39.0222 21.9514 35.8654 21.9514C32.7085 21.9514 31.7247 23.096 31.7247 26.3896ZM145.165 18.0087V24.1725H138.147V18.0087H132.828V34.6893H138.147V28.4403H145.165V34.6893H150.486V18.0087H145.165ZM118.381 35.2256C113.375 35.2256 110.623 32.505 110.623 26.4027C110.623 20.311 113.373 17.6056 118.362 17.6056C121.358 17.6056 123.794 19.4548 124.402 20.2094V17.9903H129.721V34.6909H124.433V32.6273C123.813 33.4096 121.393 35.2256 118.381 35.2256ZM120.258 21.9402C117.084 21.9402 116.133 23.0647 116.133 26.3784C116.131 29.6757 117.103 30.8169 120.258 30.8169C123.413 30.8169 124.396 29.6888 124.396 26.3784C124.396 23.0683 123.431 21.9402 120.258 21.9402ZM82.1364 28.5255C81.7213 30.2695 80.6098 30.9202 78.2011 30.9202C75.0517 30.9202 74.0621 29.7737 74.0621 26.482C74.0621 23.1903 75.0517 22.0438 78.2011 22.0438C80.6098 22.0438 81.7213 22.6928 82.1381 24.448L87.6852 24.0281C86.8569 19.6639 83.6091 17.6352 78.2011 17.6352C71.8705 17.6352 68.5153 20.3998 68.5153 26.4415C68.5153 32.483 71.8499 35.3439 78.2011 35.3439C83.6054 35.3439 86.8199 33.2728 87.6684 28.951L82.1364 28.5255ZM164.581 25.9293L173 34.6873H166.162L158.829 27.0074V27.4105V28.8546V34.6873H153.604V18.0087H158.829V25.2542L165.967 18.0087H172.548L164.581 25.9293Z" fill="#00274F"/>
</svg>
