<svg width="201" height="51" viewBox="0 0 201 51" fill="none" xmlns="http://www.w3.org/2000/svg">
<path d="M90.8369 20.414L94.6369 17.614H82.0369V34.214H94.6369V31.414H85.6369V27.214H93.2369V24.414H85.6369V20.414H90.8369ZM75.1369 20.414L78.9369 17.614H64.5369V34.214H72.0369C76.2369 34.214 78.6369 32.314 78.6369 29.014C78.6369 25.814 76.4369 24.114 72.4369 24.114H68.0369V20.414H75.1369ZM71.9369 26.814C74.2369 26.814 75.2369 27.614 75.2369 29.114C75.2369 30.614 74.1369 31.414 71.9369 31.414H68.1369V26.814H71.9369ZM104.737 17.614H97.9369V34.214H101.537V29.514H104.837C109.237 29.514 111.937 27.214 111.937 23.514C111.937 19.814 109.137 17.614 104.737 17.614ZM104.737 26.714H101.537V20.314H104.737C107.037 20.314 108.337 21.414 108.337 23.514C108.237 25.614 107.037 26.714 104.737 26.714ZM58.4369 30.614C57.4369 31.114 56.4369 31.414 55.3369 31.414C52.1369 31.414 49.7369 29.114 49.7369 25.914C49.7369 22.714 52.0369 20.414 55.3369 20.414C56.5369 20.414 57.6369 20.814 58.6369 21.414L61.2369 19.514L61.0369 19.314C59.5369 18.014 57.5369 17.314 55.2369 17.314C52.7369 17.314 50.5369 18.114 48.8369 19.714C47.2369 21.314 46.2369 23.514 46.3369 25.814C46.3369 28.114 47.2369 30.314 48.8369 32.014C50.5369 33.614 52.8369 34.514 55.1369 34.414C57.7369 34.414 59.9369 33.514 61.5369 31.914L59.2369 30.214L58.4369 30.614ZM166.337 24.414H158.637V17.614H155.037V34.214H158.637V27.414H166.337V34.214H169.937V17.614H166.337V24.414ZM142.037 17.614L134.837 34.214H138.437L139.837 30.914H147.437L148.837 34.214H152.637L145.637 17.614H142.037ZM141.037 28.114L143.837 21.414L146.437 28.114H141.037ZM182.937 25.614L189.437 17.614H185.337L179.937 24.714H177.937V17.614H174.337V34.214H177.937V27.514H180.237L185.737 34.214H190.337L182.937 25.614ZM127.337 24.114H122.937V20.414H132.337V17.614H119.337V34.214H126.837C131.037 34.214 133.437 32.314 133.437 29.014C133.537 25.814 131.337 24.114 127.337 24.114ZM126.737 31.514H122.937V26.914H126.737C129.037 26.914 130.037 27.714 130.037 29.214C130.137 30.714 128.937 31.514 126.737 31.514Z" fill="#21A038"/>
<path d="M34.8179 17.2949C35.4671 18.1455 36.0167 19.0696 36.4556 20.0487L24.0067 29.349L18.804 26.0437V22.0673L24.0067 25.3726L34.8179 17.2949Z" fill="#21A038"/>
<path d="M13.4942 25.763C13.4942 25.5846 13.4985 25.4073 13.5071 25.2311L10.3541 25.0745C10.3434 25.3029 10.3369 25.5335 10.3369 25.7662C10.3356 27.5846 10.6885 29.3853 11.3754 31.065C12.0623 32.7448 13.0698 34.2706 14.3399 35.5548L16.5764 33.2893C15.5987 32.3025 14.8231 31.1295 14.2941 29.8379C13.7652 28.5463 13.4933 27.1614 13.4942 25.763Z" fill="url(#paint0_linear_363_1560)"/>
<path d="M24.0039 15.1128C24.1798 15.1128 24.3547 15.1194 24.5286 15.1281L24.6863 11.9315C24.4603 11.9207 24.2328 11.9152 24.0039 11.9152C22.2088 11.913 20.4311 12.2702 18.7726 12.9662C17.1142 13.6622 15.6078 14.6833 14.3398 15.971L16.5763 18.2376C17.5501 17.2464 18.7076 16.4601 19.9823 15.9238C21.257 15.3876 22.6237 15.112 24.0039 15.1128Z" fill="url(#paint1_linear_363_1560)"/>
<path d="M24.0039 36.4144C23.8279 36.4144 23.653 36.4144 23.4781 36.4002L23.3203 39.5957C23.5471 39.6073 23.775 39.6131 24.0039 39.6131C25.7982 39.615 27.5751 39.2576 29.2326 38.5614C30.8902 37.8652 32.3956 36.8439 33.6626 35.5563L31.4304 33.2908C30.4564 34.2814 29.299 35.0673 28.0246 35.6034C26.7501 36.1394 25.3838 36.4151 24.0039 36.4144Z" fill="url(#paint2_linear_363_1560)"/>
<path d="M29.9281 16.971L32.5852 14.9861C30.1565 12.993 27.1249 11.908 23.9998 11.9136V15.1123C26.116 15.1096 28.183 15.7578 29.9281 16.971Z" fill="url(#paint3_linear_363_1560)"/>
<path d="M37.6698 25.7635C37.6715 24.9314 37.5997 24.1007 37.4552 23.2816L34.5136 25.4785C34.5136 25.5732 34.5136 25.6678 34.5136 25.7635C34.5144 27.2517 34.2065 28.7234 33.6102 30.0833C33.0138 31.4432 32.142 32.6609 31.0515 33.6574L33.1732 36.034C34.5909 34.7368 35.7239 33.1523 36.4985 31.383C37.2732 29.6137 37.6722 27.6992 37.6698 25.7635Z" fill="#21A038"/>
<path d="M24.0039 36.4149C22.5354 36.4154 21.0831 36.1034 19.7411 35.499C18.3992 34.8946 17.1974 34.0112 16.2137 32.9062L13.8699 35.0554C15.1496 36.4924 16.7131 37.6407 18.4589 38.426C20.2047 39.2112 22.0938 39.6159 24.0039 39.6136V36.4149Z" fill="url(#paint4_linear_363_1560)"/>
<path d="M16.9563 17.8693L14.8357 15.4929C13.4176 16.7897 12.2842 18.3742 11.5092 20.1435C10.7342 21.9128 10.3348 23.8274 10.3369 25.7632H13.4942C13.4936 24.2752 13.8014 22.8034 14.3978 21.4435C14.9942 20.0837 15.8659 18.866 16.9563 17.8693Z" fill="url(#paint5_linear_363_1560)"/>
<defs>
<linearGradient id="paint0_linear_363_1560" x1="14.9784" y1="35.1557" x2="11.446" y2="25.0798" gradientUnits="userSpaceOnUse">
<stop offset="0.14" stop-color="#F1E813"/>
<stop offset="0.3" stop-color="#E6E418"/>
<stop offset="0.58" stop-color="#C9DA26"/>
<stop offset="0.89" stop-color="#A2CC39"/>
</linearGradient>
<linearGradient id="paint1_linear_363_1560" x1="15.2413" y1="16.5365" x2="24.156" y2="13.1844" gradientUnits="userSpaceOnUse">
<stop offset="0.06" stop-color="#0FA7DF"/>
<stop offset="0.54" stop-color="#0098F8"/>
<stop offset="0.92" stop-color="#0290EA"/>
</linearGradient>
<linearGradient id="paint2_linear_363_1560" x1="23.1122" y1="37.6825" x2="33.1721" y2="35.4401" gradientUnits="userSpaceOnUse">
<stop offset="0.12" stop-color="#A2CC39"/>
<stop offset="0.28" stop-color="#86C239"/>
<stop offset="0.87" stop-color="#219F38"/>
</linearGradient>
<linearGradient id="paint3_linear_363_1560" x1="23.343" y1="12.9849" x2="31.9525" y2="15.6065" gradientUnits="userSpaceOnUse">
<stop offset="0.06" stop-color="#0290EA"/>
<stop offset="0.79" stop-color="#0C89CA"/>
</linearGradient>
<linearGradient id="paint4_linear_363_1560" x1="14.6619" y1="34.666" x2="24.0418" y2="38.1251" gradientUnits="userSpaceOnUse">
<stop offset="0.13" stop-color="#F1E813"/>
<stop offset="0.3" stop-color="#EAE616"/>
<stop offset="0.53" stop-color="#D8DF1F"/>
<stop offset="0.8" stop-color="#BAD52D"/>
<stop offset="0.98" stop-color="#A2CC39"/>
</linearGradient>
<linearGradient id="paint5_linear_363_1560" x1="11.5131" y1="26.1504" x2="15.3543" y2="16.2908" gradientUnits="userSpaceOnUse">
<stop offset="0.07" stop-color="#A2CC39"/>
<stop offset="0.26" stop-color="#81C45E"/>
<stop offset="0.92" stop-color="#0FA7DF"/>
</linearGradient>
</defs>
</svg>
