<svg width="200" height="51" viewBox="0 0 200 51" fill="none" xmlns="http://www.w3.org/2000/svg">
<path d="M56.9047 7.19775L55.1768 11.9375H79.1136L80.8416 7.19775H56.9047ZM54.3138 14.3054L52.5859 19.0441H76.5227L78.2507 14.3054H54.3138ZM51.7279 21.413L50 26.1507H73.9369L75.6628 21.412C75.6638 21.413 51.7279 21.413 51.7279 21.413Z" fill="#009FDF"/>
<path d="M100.322 27.6382V27.7367C101.397 28.1315 102.425 28.8226 102.962 29.2667C104.624 30.649 105.358 32.4744 105.358 34.8433C105.358 38.7442 103.305 41.5561 99.9302 42.4452C98.9025 42.7415 97.8275 42.84 95.8233 42.84H85.6064V14.311H94.652C96.5105 14.311 97.7803 14.4095 98.9045 14.7048C102.181 15.5939 104.332 17.8643 104.332 21.4669C104.332 23.3927 103.648 25.0222 102.524 26.1072C102.035 26.6004 101.351 27.1932 100.324 27.6372L100.322 27.6382ZM91.2775 30.649V38.1515H95.1894C96.3618 38.1515 97.4388 38.053 98.2203 37.3126C99.0029 36.5722 99.3445 35.6339 99.3445 34.4002C99.3445 33.4639 99.0994 32.5749 98.6111 31.9329C97.7803 30.8962 96.7526 30.649 94.9935 30.649H91.2765H91.2775ZM91.2272 25.7124H94.4058C95.3833 25.7124 95.8726 25.7124 96.3608 25.5647C97.6819 25.1689 98.5127 23.9864 98.5127 22.357C98.5127 20.4321 97.6326 19.5923 96.3608 19.1985C95.8223 19.0498 95.2859 19.0016 94.2099 19.0016H91.2272V25.7134V25.7124ZM113.865 42.841V19.099H105.701V14.312H128.388L126.774 19.099H119.537V42.841H113.865ZM130.148 42.841V14.312H148.532L146.919 19.099H135.772V25.418H140.32C143.986 25.418 145.893 26.3071 147.214 27.4413C148.242 28.3304 150.001 30.3034 150.001 34.2043C150.001 38.054 148.193 40.1758 146.676 41.2627C144.916 42.4954 143.058 42.842 139.292 42.842H130.149H130.148V42.841ZM135.771 38.052H140.024C141.638 38.052 142.615 37.6572 143.299 36.7681C143.641 36.3251 144.13 35.5334 144.13 34.0537C144.13 32.5739 143.641 31.5361 142.663 30.7957C142.078 30.3527 141.294 30.1065 139.974 30.1065H135.769V38.052H135.771Z" fill="#0A2973"/>
</svg>
